<?xml version="1.0" encoding="utf-8"?>
<!-- Generator: Adobe Illustrator 18.1.1, SVG Export Plug-In . SVG Version: 6.00 Build 0)  -->
<svg version="1.1" id="Layer_1" xmlns="http://www.w3.org/2000/svg" xmlns:xlink="http://www.w3.org/1999/xlink" x="0px" y="0px"
	 viewBox="0 0 96 96" enable-background="new 0 0 96 96" xml:space="preserve">
<path fill="#010101" d="M78.6,35.8h-7.2V25.6c0-3.3-2.7-5.9-5.9-5.9h-46c-3.3,0-5.9,2.7-5.9,5.9v26.6c0,3.3,2.7,5.9,5.9,5.9h7.2
	v10.2c0,3.3,2.7,5.9,5.9,5.9h46c3.3,0,5.9-2.7,5.9-5.9V41.8C84.5,38.5,81.9,35.8,78.6,35.8z M32.6,35.8c-0.1,0-0.2,0-0.3,0H16.9
	v-4.5H68v4.4H32.6z M19.4,23.1h46c1.4,0,2.5,1.1,2.5,2.5V28H16.9v-2.4C16.9,24.2,18,23.1,19.4,23.1z M19.4,54.8
	c-1.4,0-2.5-1.1-2.5-2.5v-13h10.3c-0.4,0.8-0.6,1.6-0.6,2.5v13L19.4,54.8L19.4,54.8z M81.1,68.4c0,1.4-1.1,2.5-2.5,2.5h-46
	c-1.4,0-2.5-1.1-2.5-2.5V41.8c0-1.3,1-2.4,2.3-2.5h37.3c0.1,0,0.1,0,0.2,0h8.7c1.4,0,2.5,1.1,2.5,2.5L81.1,68.4L81.1,68.4z"/>
<path fill="#010101" d="M60.7,46.9c-1.9,0-3.7,0.7-5.1,1.8c-1.4-1.2-3.2-1.8-5.1-1.8c-4.5,0-8.2,3.7-8.2,8.2s3.7,8.2,8.2,8.2
	c1.9,0,3.7-0.6,5.1-1.8c1.4,1.1,3.2,1.8,5.1,1.8c4.5,0,8.2-3.7,8.2-8.2S65.2,46.9,60.7,46.9z M45.7,55.1c0-2.6,2.1-4.8,4.8-4.8
	c1.1,0,2.1,0.4,3,1c-0.6,1.1-0.9,2.4-0.9,3.8c0,1.4,0.3,2.6,0.9,3.8c-0.8,0.7-1.9,1-3,1C47.8,59.8,45.7,57.7,45.7,55.1z M60.7,59.8
	c-2.6,0-4.8-2.1-4.8-4.8c0-2.6,2.1-4.8,4.8-4.8s4.8,2.1,4.8,4.8C65.5,57.7,63.3,59.8,60.7,59.8z"/>
</svg>
