<?xml version="1.0" encoding="utf-8"?>
<!-- Generator: Adobe Illustrator 18.1.1, SVG Export Plug-In . SVG Version: 6.00 Build 0)  -->
<svg version="1.1" id="Layer_1" xmlns="http://www.w3.org/2000/svg" xmlns:xlink="http://www.w3.org/1999/xlink" x="0px" y="0px"
	 viewBox="680.8 8 48.5 64" enable-background="new 680.8 8 48.5 64" xml:space="preserve">
<path d="M727.4,26.2c0-1.6-1.3-2.9-2.9-2.9h-6.7v-2.5c0-7.1-5.7-12.8-12.6-12.8c-7.1,0-12.8,5.7-12.8,12.8v2.5h-6.7
	c-1.6,0-2.9,1.3-2.9,2.8l-2,43c0,0.6,0.3,1.2,0.6,1.6c0.4,0.8,1.3,1.3,2.3,1.3h42.9c0.9,0,1.6-0.4,2.1-1c0.4-0.5,0.7-1.2,0.7-2
	L727.4,26.2z M712.2,23.3h-14v-2.5c0-3.9,3.1-7,7-7s7,3.1,7,7V23.3z M695.3,32.7c1.6,0,2.9-1.3,2.9-2.9V29h14v0.8
	c0,1.6,1.3,2.9,2.9,2.9c1.4,0,2.8-1.4,2.8-2.9V29h4l1.8,37.3h-36.9l1.9-37.3h3.7v0.8C692.3,31.3,693.7,32.7,695.3,32.7z"/>
</svg>
