<?xml version="1.0" encoding="utf-8"?>
<!-- Generator: Adobe Illustrator 18.1.1, SVG Export Plug-In . SVG Version: 6.00 Build 0)  -->
<svg version="1.1" id="Layer_1" xmlns="http://www.w3.org/2000/svg" xmlns:xlink="http://www.w3.org/1999/xlink" x="0px" y="0px"
	 viewBox="345 10 29.8 40" enable-background="new 345 10 29.8 40" xml:space="preserve">
<g>
	<g>
		<path d="M374.3,50h-28.6c-0.2,0-0.4-0.1-0.4-0.2c-0.1-0.1-0.2-0.3-0.2-0.4l1.3-28.6c0-0.4,0.3-0.6,0.6-0.6h25.9
			c0.4,0,0.6,0.3,0.6,0.6l1.3,28.6c0,0.2-0.1,0.4-0.2,0.4C374.6,49.9,374.5,50,374.3,50L374.3,50z M346.3,48.8h27.4l-1.3-27.5h-24.7
			L346.3,48.8z"/>
	</g>
	<path d="M366.6,23.8c-0.4,0-0.6-0.3-0.6-0.6v-6c0-3.3-2.7-6-6-6c-3.3,0-6,2.7-6,6v6c0,0.4-0.3,0.6-0.6,0.6s-0.6-0.3-0.6-0.6v-6
		c0-3.9,3.2-7.2,7.2-7.2c3.9,0,7.1,3.2,7.1,7.2v6C367.1,23.5,366.8,23.8,366.6,23.8L366.6,23.8z"/>
</g>
</svg>
