<?xml version="1.0" encoding="utf-8"?>
<!-- Generator: Adobe Illustrator 18.1.1, SVG Export Plug-In . SVG Version: 6.00 Build 0)  -->
<svg version="1.1" id="Layer_1" xmlns="http://www.w3.org/2000/svg" xmlns:xlink="http://www.w3.org/1999/xlink" x="0px" y="0px"
	 viewBox="0 0 96 96" enable-background="new 0 0 96 96" xml:space="preserve">
<g>
	<g>
		<defs>
			<rect id="SVGID_1_" x="5.5" y="10.4" width="84.9" height="75.2"/>
		</defs>
		<clipPath id="SVGID_2_">
			<use xlink:href="#SVGID_1_"  overflow="visible"/>
		</clipPath>
		<path clip-path="url(#SVGID_2_)" d="M37.3,59.9l13.9,4.2c0,0.1-0.1,0.2-0.1,0.3c-0.4,1-1.1,1.6-2.4,1.8
			c-4.6,0.7-12.1,0.3-12.2,0.3c-1.2-0.1-2.2,0.8-2.2,2c-0.1,1.2,0.8,2.2,2,2.2c0.3,0,8.1,0.5,13.1-0.3c5-0.8,6.4-5.2,6.2-8
			c-0.1-0.9-0.7-1.6-1.5-1.8l-15.5-4.7c-7.7-2.3-16.1,2-16.4,2.1c0,0-0.1,0-0.1,0.1L6.6,67.4c-1,0.6-1.3,1.9-0.7,2.9
			c0.4,0.7,1.1,1,1.8,1c0.4,0,0.7-0.1,1.1-0.3l15.4-9.3C24.8,61.4,31.6,58.2,37.3,59.9L37.3,59.9z M37.3,59.9"/>
		<path clip-path="url(#SVGID_2_)" d="M90.2,56.4c-1.2-2.2-5-5.8-10.8-3.2c-5.4,2.4-16.9,7.9-17.1,8c-1.1,0.5-1.5,1.8-1,2.8
			c0.5,1.1,1.8,1.5,2.8,1c0.1-0.1,11.5-5.6,16.9-7.9c1.5-0.7,2.8-0.7,3.9,0c0,0,0.1,0,0.1,0.1L56.4,78.1c-2,1.5-4.6,2.1-7.1,1.7
			l-25.7-4.1c-0.6-0.1-1.2,0.1-1.7,0.5l-6.5,5.4c-0.9,0.7-1,2.1-0.3,3c0.4,0.5,1,0.8,1.6,0.8c0.5,0,1-0.2,1.4-0.5l5.8-4.8l24.7,4
			c3.6,0.6,7.4-0.3,10.3-2.5l30.7-22.5C90.5,58.4,90.7,57.3,90.2,56.4L90.2,56.4z M90.2,56.4"/>
	</g>
	<path d="M51,53.9c3.3,0,6.4-1.3,8.7-3.6c4.8-4.8,4.8-12.6,0-17.5c-2.3-2.3-5.4-3.6-8.7-3.6c-3.3,0-6.4,1.3-8.7,3.6
		c-4.8,4.8-4.8,12.6,0,17.5C44.6,52.6,47.7,53.9,51,53.9L51,53.9z M45.2,35.8c1.5-1.5,3.6-2.4,5.7-2.4c2.2,0,4.2,0.8,5.7,2.4
		c3.2,3.2,3.2,8.3,0,11.5c-1.5,1.5-3.6,2.4-5.7,2.4c-2.2,0-4.2-0.8-5.7-2.4C42.1,44.2,42.1,39,45.2,35.8L45.2,35.8z M45.2,35.8"/>
	<path d="M65.5,29.8c2.6,0,5-1,6.8-2.8c3.8-3.8,3.8-9.9,0-13.6c-1.8-1.8-4.2-2.8-6.8-2.8c-2.6,0-5,1-6.8,2.8
		c-3.8,3.8-3.8,9.9,0,13.6C60.5,28.8,62.9,29.8,65.5,29.8L65.5,29.8z M61.6,16.3c1-1,2.4-1.6,3.8-1.6c1.4,0,2.8,0.6,3.8,1.6
		c2.1,2.1,2.1,5.5,0,7.6c-1,1-2.4,1.6-3.8,1.6c-1.4,0-2.8-0.6-3.8-1.6C59.5,21.9,59.5,18.4,61.6,16.3L61.6,16.3z M61.6,16.3"/>
</g>
</svg>
