<?xml version="1.0" encoding="iso-8859-1"?>
<!-- Generator: Adobe Illustrator 18.1.1, SVG Export Plug-In . SVG Version: 6.00 Build 0)  -->
<svg version="1.1" id="Layer_1" xmlns="http://www.w3.org/2000/svg" xmlns:xlink="http://www.w3.org/1999/xlink" x="0px" y="0px"
	 viewBox="159 349 96 96" style="enable-background:new 159 349 96 96;" xml:space="preserve">
<path d="M221.872,414.695c0.753,3.703,4.035,6.498,7.956,6.498c3.922,0,7.203-2.795,7.957-6.498h8.289
	c0.895,0,1.621-0.726,1.621-1.621v-15.732c0-0.578-0.307-1.112-0.807-1.402l-4.696-2.727l-2.683-11.463
	c-0.714-3.051-3.401-5.182-6.535-5.182H219.48v-2.141c0-0.895-0.726-1.621-1.621-1.621h-49.933c-0.895,0-1.621,0.726-1.621,1.621
	v38.647c0,0.895,0.726,1.621,1.621,1.621h5.211c0.753,3.703,4.035,6.498,7.956,6.498c3.922,0,7.203-2.795,7.957-6.498
	L221.872,414.695L221.872,414.695z M236.352,382.488l2.376,10.154h-9.843v-12.832h4.09
	C234.595,379.81,235.983,380.912,236.352,382.488z M169.547,376.048h46.691v2.141v21.635h-46.691V376.048z M169.547,403.067h46.691
	v2.571h-14.624c-0.895,0-1.621,0.726-1.621,1.621s0.726,1.621,1.621,1.621h14.624v2.571h-27.188
	c-0.753-3.703-4.035-6.498-7.957-6.498c-3.922,0-7.203,2.795-7.956,6.498h-3.59V403.067z M181.093,417.951
	c-2.689,0-4.877-2.188-4.877-4.877c0-2.689,2.188-4.877,4.877-4.877c2.689,0,4.877,2.188,4.877,4.877
	C185.97,415.763,183.782,417.951,181.093,417.951z M229.829,417.951c-2.58,0-4.697-2.014-4.865-4.552
	c0.021-0.105,0.033-0.214,0.033-0.325c0-0.111-0.011-0.22-0.033-0.325c0.168-2.538,2.285-4.552,4.865-4.552
	c2.689,0,4.877,2.188,4.877,4.877C234.706,415.763,232.518,417.951,229.829,417.951z M219.48,379.81h6.163v14.453
	c0,0.895,0.726,1.621,1.621,1.621h13.073l4.116,2.39v0.523h-4.706c-0.895,0-1.621,0.726-1.621,1.621v4.959
	c0,0.895,0.726,1.621,1.621,1.621h4.706v4.452h-6.667c-0.753-3.703-4.035-6.498-7.957-6.498s-7.203,2.795-7.956,6.498h-2.392V379.81
	z M244.453,403.758h-3.084v-1.716h3.084V403.758z"/>
<path d="M194.773,408.881h1.368c0.895,0,1.621-0.726,1.621-1.621s-0.726-1.621-1.621-1.621h-1.368c-0.895,0-1.621,0.726-1.621,1.621
	S193.878,408.881,194.773,408.881z"/>
</svg>
