<?xml version="1.0" encoding="utf-8"?>
<!-- Generator: Adobe Illustrator 18.1.1, SVG Export Plug-In . SVG Version: 6.00 Build 0)  -->
<svg version="1.1" id="Layer_1" xmlns="http://www.w3.org/2000/svg" xmlns:xlink="http://www.w3.org/1999/xlink" x="0px" y="0px"
	 viewBox="807.8 968.1 160 75.4" enable-background="new 807.8 968.1 160 75.4" xml:space="preserve">
<g>
	<path d="M832.3,1014.9h24.2c0.6,0,1.2-0.1,1.7-0.4c0.4-0.4,0.7-0.9,0.7-1.4h0.9v7.2h-0.9c-0.1-0.5-0.3-1-0.7-1.4
		c-0.5-0.3-1.1-0.4-1.7-0.4h-30.4v-0.9c0.5-0.1,1.1-0.4,1.4-0.8c0.3-0.5,0.4-1.1,0.4-1.6v-31.4c0-0.6-0.1-1.1-0.4-1.6
		c-0.4-0.4-0.9-0.7-1.4-0.7v-0.9h7.9v0.9c-0.5,0.1-1,0.4-1.4,0.7c-0.3,0.5-0.4,1.1-0.3,1.6V1014.9L832.3,1014.9z"/>
	<path d="M896.2,1011h-14l-2,4.5c-0.2,0.4-0.3,0.8-0.4,1.3c0,0.5,0.4,0.9,1.2,1.1v0.6h-6.6v-0.6c0.6-0.1,1.1-0.3,1.5-0.8
		c0.5-0.7,1-1.4,1.3-2.2l8.9-19.2c0.4-0.7,0.6-1.4,0.7-2.2c0-0.6-0.4-0.9-1.2-1v-0.7h7.8v0.6c-0.8,0.2-1.2,0.5-1.2,1
		c0.2,0.9,0.5,1.7,1,2.5l8.5,18.5c0.4,0.9,0.9,1.8,1.5,2.5c0.4,0.5,1,0.8,1.6,0.8v0.6h-7v-0.6c0.7-0.2,1.1-0.4,1.1-0.8
		c-0.1-0.5-0.3-1.1-0.6-1.6L896.2,1011z M895.1,1008.4l-5.8-13.1l-5.9,13.1H895.1L895.1,1008.4z"/>
	<path d="M921,1006.1L921,1006.1L921,1006.1L921,1006.1z"/>
	<path d="M935.1,999.6L935.1,999.6L935.1,999.6z"/>
	<path d="M929.2,1010.1"/>
	<path d="M922.9,1010.3L922.9,1010.3L922.9,1010.3L922.9,1010.3z"/>
	<path d="M923.2,1010.9L923.2,1010.9L923.2,1010.9L923.2,1010.9L923.2,1010.9z"/>
	<path d="M929.7,1010.4"/>
	<path d="M930.6,1010l0.2-0.1l0,0c-0.3,0.1-0.5,0.2-0.8,0.3l-0.2,0.1l0,0C930,1010.2,930.3,1010.1,930.6,1010z"/>
	<path d="M932.1,1002.8L932.1,1002.8L932.1,1002.8z"/>
	<path d="M938.8,981l0.2-0.1L938.8,981z"/>
	<path d="M919.1,1001.6L919.1,1001.6c0-0.1,0-0.2,0-0.3l0,0C919.1,1001.4,919.1,1001.5,919.1,1001.6z"/>
	<path d="M917.9,998.9L917.9,998.9c0,0,0-0.1,0.1-0.2l0,0L917.9,998.9z"/>
	<path d="M937.1,981.5c0.4-0.1,0.7-0.3,1-0.4C937.8,981.3,937.5,981.4,937.1,981.5z"/>
	<path d="M932.8,1002.4"/>
	<path d="M929.3,1010.5c0.1-0.1,0.2-0.1,0.4-0.2l-0.3,0.1L929.3,1010.5L929.3,1010.5z"/>
	<path d="M920.8,1005.1l-0.2-0.2l0,0l0,0l0,0L920.8,1005.1z"/>
	<path d="M937.1,981.5c1.1-0.5,2.3-0.8,3.4-0.9l0,0h0.1h0.1l0,0C939.5,980.7,938.2,981,937.1,981.5z"/>
	<path d="M929.6,1009.8c0.5-0.2,1-0.4,1.5-0.6l0,0l-0.2,0.1C930.5,1009.5,930,1009.6,929.6,1009.8z"/>
	<path d="M933.1,1002.5l0.3-0.2L933.1,1002.5z"/>
	<path d="M933.6,1002.3l0.4-0.2L933.6,1002.3z"/>
	<path d="M932.6,1002.9l0.2-0.1L932.6,1002.9z"/>
	<path d="M929.8,1010.3l0.2-0.1L929.8,1010.3z"/>
	<path d="M929.5,1010.4L929.5,1010.4L929.5,1010.4L929.5,1010.4z"/>
	<path d="M939.7,980.7L939.7,980.7L939.7,980.7z"/>
	<path d="M939,980.9L939,980.9l-0.2,0.1h-0.1L939,980.9z"/>
	<path d="M920.5,1004.9"/>
	<path d="M930.7,1010L930.7,1010c-0.3,0.1-0.5,0.2-0.8,0.3C930.2,1010.1,930.5,1010,930.7,1010z"/>
	<path d="M929.7,1010.3l-0.3,0.1L929.7,1010.3z"/>
	<path d="M929.2,1010.1l0.2-0.1L929.2,1010.1L929.2,1010.1L929.2,1010.1z"/>
	<path d="M929.5,1009.9c0.5-0.2,1-0.4,1.5-0.6l0,0C930.6,1009.4,930.1,1009.6,929.5,1009.9L929.5,1009.9z"/>
	<path d="M929.8,1010.3L929.8,1010.3L929.8,1010.3z"/>
	<path d="M929.3,1010l-0.2,0.1l0.2,0.4l0.1-0.1l0.3-0.1l0,0l0,0l0.2-0.1c0.3-0.1,0.5-0.2,0.8-0.3l0.4-0.8c-0.5,0.2-1,0.4-1.5,0.6
		L929.3,1010z"/>
	<path d="M938.1,981.2c-0.3,0.1-0.7,0.2-1,0.4C937.5,981.4,937.8,981.3,938.1,981.2L938.1,981.2z"/>
	<path d="M922.5,994.6"/>
	<path d="M927.8,994.3l0.3-0.1L927.8,994.3z"/>
	<path d="M927.4,994.5c-1.5,0.5-3,0.8-4.4,1.4l0,0C924.4,995.3,926,995,927.4,994.5z"/>
	<path d="M924.9,993.2"/>
	<path d="M922.4,994.5L922.4,994.5L922.4,994.5L922.4,994.5z"/>
	<path d="M922.5,994.5c0.4-0.2,0.8-0.3,1.2-0.4C923.3,994.2,922.9,994.3,922.5,994.5z"/>
	<path d="M922.4,994.5L922.4,994.5L922.4,994.5c0.4-0.1,0.8-0.3,1.2-0.4c0.6-0.1,1.2-0.2,1.7-0.4c2.3-0.4,4.4-0.8,5.3-3.4
		c0.2-0.7,0.4-1.3,0.6-2c0.3-1.5,0.9-2.9,1.8-4.2c1.1-1.3,2.5-2.2,4-2.7c1.2-0.5,2.4-0.8,3.7-1l0,0c-1.2-0.2-3.2,0.5-4.1,0.8h-0.1
		c-1.4,0.5-2.7,1.3-3.6,2.5c-1.1,1.3-1.4,2.7-1.7,4.1c-0.1,0.7-0.3,1.4-0.5,2.1c-0.6,1.9-1.8,2.3-3.7,2.7l-0.7,0.2l-1.3,0.3l0,0
		c-0.9,0.2-1.8,0.5-2.7,0.9L922.4,994.5z"/>
	<path d="M921.2,1006.1"/>
	<path d="M918,998.8L918,998.8c0,0.1-0.1,0.1-0.1,0.2l0,0L918,998.8z"/>
	<path d="M921.2,1006.1L921.2,1006.1H921l0.1,0.3h0.1L921.2,1006.1L921.2,1006.1z"/>
	<path d="M920.5,1004.9l0.2,0.2l0,0L920.5,1004.9z"/>
	<path d="M920.5,1004.9L920.5,1004.9L920.5,1004.9z"/>
	<path d="M921.1,1006"/>
	<path d="M919.1,1001.2L919.1,1001.2c0,0.1,0,0.2,0,0.3l0,0C919.1,1001.5,919.1,1001.4,919.1,1001.2z"/>
	<path d="M918.5,1004.7c-0.1-0.1-0.2-0.2-0.3-0.3C918.3,1004.4,918.4,1004.6,918.5,1004.7z"/>
	<path d="M918.7,1005"/>
	<path d="M919.1,1001.7L919.1,1001.7c0,0.3,0,0.6,0.1,1l0,0v0.1C919.1,1002.4,919.1,1002,919.1,1001.7z"/>
	<path d="M920.5,1004.9c-0.1-0.1-0.3-0.3-0.4-0.4l0.1,0.1l0,0L920.5,1004.9L920.5,1004.9z"/>
	<path d="M919.5,1003.6L919.5,1003.6l0.1,0.2l0.1,0.2l0,0c0.1,0.1,0.2,0.3,0.3,0.4C919.9,1004.2,919.7,1003.9,919.5,1003.6z"/>
	<path d="M919.3,1003.2c0,0.1,0.1,0.2,0.1,0.2v0.1l0,0C919.4,1003.4,919.4,1003.3,919.3,1003.2z"/>
	<path d="M919.6,1003.8L919.6,1003.8L919.6,1003.8z"/>
	<path d="M919.5,1003.5L919.5,1003.5L919.5,1003.5z"/>
	<path d="M919.2,1002.6"/>
	<path d="M920.3,1004.6"/>
	<path d="M919.8,1004L919.8,1004L919.8,1004z"/>
	<path d="M919.4,1003.4c0-0.1-0.1-0.2-0.1-0.2C919.4,1003.2,919.4,1003.3,919.4,1003.4z"/>
	<path d="M919,1001.5c0,0.4,0,0.7,0.1,1C919.1,1002.3,919.1,1001.9,919,1001.5L919,1001.5z"/>
	<path d="M919.8,1004l-0.1-0.2L919.8,1004z"/>
	<path d="M920.1,1004.4c-0.1-0.1-0.2-0.3-0.3-0.4c0.1,0.2,0.3,0.4,0.5,0.6L920.1,1004.4L920.1,1004.4z"/>
	<path d="M919.2,1002.6c0,0.1,0,0.1,0,0.2l0,0C919.2,1002.7,919.2,1002.6,919.2,1002.6z"/>
	<path d="M919.5,1003.6L919.5,1003.6L919.5,1003.6L919.5,1003.6z"/>
	<path d="M920.3,1004.6l0.2,0.2l0,0L920.3,1004.6z"/>
	<path d="M919.5,1003.5L919.5,1003.5L919.5,1003.5L919.5,1003.5z"/>
	<path d="M918.7,1005c0.6,0.6,1.5,1,2.3,1l0,0C920.2,1006,919.3,1005.6,918.7,1005z"/>
	<path d="M917.1,1002.6c0-0.2-0.1-0.4-0.1-0.6C917,1002.2,917.1,1002.4,917.1,1002.6z"/>
	<path d="M918.7,1005c-0.1-0.1-0.2-0.2-0.3-0.3C918.5,1004.8,918.6,1004.9,918.7,1005z"/>
	<path d="M916.9,1001.4C916.9,1001.4,916.9,1001.5,916.9,1001.4L916.9,1001.4L916.9,1001.4z"/>
	<path d="M917.9,998.9c0,0.1-0.1,0.2-0.1,0.3c-0.1,0.3-0.2,0.6-0.3,0.9C917.6,999.7,917.7,999.3,917.9,998.9L917.9,998.9z"/>
	<path d="M917.5,1000.1c0.1-0.3,0.2-0.6,0.3-0.9C917.7,999.5,917.6,999.8,917.5,1000.1z"/>
	<path d="M920.1,1006.3h0.2H920.1z"/>
	<path d="M916.9,1001.5L916.9,1001.5L916.9,1001.5z"/>
	<path d="M917.9,998.9c0,0.1-0.1,0.2-0.1,0.3C917.8,999.1,917.9,999,917.9,998.9L917.9,998.9z"/>
	<path d="M916.9,1001c0,0.2,0,0.3,0,0.5v0.1C916.9,1001.3,916.9,1001.1,916.9,1001z"/>
	<path d="M917,1002c0,0.2,0.1,0.4,0.1,0.6c-0.1-0.3-0.1-0.6-0.1-0.8C917,1001.9,917,1002,917,1002z"/>
	<path d="M922.1,1011.3L922.1,1011.3L922.1,1011.3z"/>
	<path d="M922.3,1011.9c-0.1-0.1-0.1-0.2-0.2-0.3C922.2,1011.7,922.3,1011.8,922.3,1011.9z"/>
	<path d="M922.6,1012.1L922.6,1012.1L922.6,1012.1z"/>
	<path d="M922.2,1011.6c0-0.1,0-0.1,0-0.2C922.1,1011.4,922.1,1011.5,922.2,1011.6z"/>
	<path d="M922.9,1012.2"/>
	<path d="M922.2,1011.1L922.2,1011.1C922.2,1011,922.2,1011,922.2,1011.1z"/>
	<path d="M922.8,1012.2L922.8,1012.2L922.8,1012.2z"/>
	<path d="M922.9,1010.3L922.9,1010.3L922.9,1010.3z"/>
	<path d="M923.2,1010.9L923.2,1010.9L923.2,1010.9z"/>
	<path d="M922.3,1010.9L922.3,1010.9L922.3,1010.9z"/>
	<path d="M923.1,1012.2"/>
	<path d="M922.5,1010.7L922.5,1010.7L922.5,1010.7z"/>
	<path d="M922.6,1010.5L922.6,1010.5L922.6,1010.5z"/>
	<path d="M923,1011L923,1011L923,1011z"/>
	<path d="M922.9,1010.3L922.9,1010.3l-0.2,0.1h-0.1l-0.1,0.1l-0.1,0.1l-0.1,0.1l-0.1,0.1l-0.1,0.1v0.1v0.1v0.1v0.1
		c0,0.1,0,0.1,0,0.2v0.1c0,0.1,0.1,0.2,0.2,0.3s0.1,0.1,0.2,0.2h0.1l0.1,0.1h0.1h0.1h0.1h0.1l0,0c0.2-0.1,0.4-0.3,0.4-0.5l-0.2-0.5
		c-0.2-0.1-0.4-0.1-0.6-0.1c0.1,0,0.2,0,0.2,0h0.1l0.1-0.1l0,0L922.9,1010.3z"/>
	<path d="M934.4,999.1c0-0.1-0.1-0.2-0.1-0.3C934.3,998.9,934.3,999,934.4,999.1z"/>
	<path d="M935.1,999.6L935.1,999.6L935.1,999.6z"/>
	<path d="M934.6,999.3L934.6,999.3C934.5,999.3,934.6,999.3,934.6,999.3z"/>
	<path d="M939.3,986.5L939.3,986.5L939.3,986.5z"/>
	<path d="M939.3,986.5L939.3,986.5L939.3,986.5L939.3,986.5z"/>
	<path d="M939.5,986.6L939.5,986.6L939.5,986.6L939.5,986.6z"/>
	<path d="M939.2,986.3c-0.1-0.1-0.2-0.2-0.3-0.3C938.9,986.1,939,986.2,939.2,986.3z"/>
	<path d="M940.5,980.5L940.5,980.5L940.5,980.5L940.5,980.5z"/>
	<path d="M923.3,1011.2l0.2,0.5C923.5,1011.5,923.4,1011.3,923.3,1011.2z"/>
	<path d="M933.7,1003.1l0.5-1.1l-0.2,0.1l-0.4,0.2l-0.2,0.1l-0.3,0.2l-0.3,0.2l-0.2,0.1c-0.2,0.1-0.3,0.3-0.4,0.4
		c-0.9,1.1-0.5,2.6-1.4,3.7c0.9-0.7,1.1-2.1,1.9-3C933,1003.7,933.4,1003.4,933.7,1003.1z"/>
	<path d="M932.8,1002.7l0.3-0.2C933,1002.6,932.9,1002.7,932.8,1002.7z"/>
	<path d="M934.2,1002l-0.2,0.1l0,0L934.2,1002z"/>
	<path d="M933.4,1002.4l0.2-0.1L933.4,1002.4z"/>
	<path d="M932.2,1003.3c0.1-0.1,0.3-0.3,0.4-0.4C932.4,1003,932.3,1003.1,932.2,1003.3z"/>
	<path d="M919.5,1003.6c0.2,0.3,0.3,0.6,0.5,0.8l0,0c0.1,0.1,0.2,0.3,0.4,0.4l0.2,0.2l-1.7-3.8c0,0.1,0,0.2,0,0.4
		c0,0.4,0,0.7,0.1,1.1c0,0.1,0.1,0.3,0.1,0.4c0,0.1,0.1,0.2,0.2,0.4L919.5,1003.6z"/>
	<path d="M919.2,1002.8c0,0.1,0.1,0.3,0.1,0.4C919.3,1003,919.2,1002.9,919.2,1002.8L919.2,1002.8z"/>
	<path d="M919.5,1003.5L919.5,1003.5L919.5,1003.5L919.5,1003.5L919.5,1003.5z"/>
	<path d="M920.1,1004.4"/>
	<path d="M919.3,1003.2c0-0.1-0.1-0.2-0.1-0.4C919.2,1002.9,919.3,1003,919.3,1003.2z"/>
	<path d="M919.5,1003.6"/>
	<path d="M929.2,1010.1l0.3-0.2h0.1h0.1c0.4-0.2,0.8-0.4,1.3-0.5l0.2-0.1l0.9-2c-0.2,0.4-0.5,0.8-0.8,1.1c-0.6,0.6-1.3,1-2.1,1.3
		V1010.1L929.2,1010.1z"/>
	<path d="M929.5,1009.9L929.5,1009.9L929.5,1009.9z"/>
	<path d="M929.6,1009.8L929.6,1009.8L929.6,1009.8L929.6,1009.8z"/>
	<path d="M929.5,1009.9l-0.3,0.2L929.5,1009.9L929.5,1009.9z"/>
	<path d="M929.5,1009.9L929.5,1009.9L929.5,1009.9l-0.2,0.1L929.5,1009.9z"/>
	<path d="M920.1,1006.3c-1.9-0.5-2.7-2.3-3-3.6c0-0.2-0.1-0.4-0.1-0.6c0-0.1,0-0.2,0-0.3s0-0.2,0-0.3s0,0,0-0.1c0-0.2,0-0.4,0-0.6
		s0-0.3,0-0.4c0-0.1,0-0.3,0.1-0.5s0-0.3,0.1-0.4c0-0.1,0-0.2,0.1-0.3c0.1-0.3,0.2-0.6,0.3-0.9v-0.1c0-0.1,0.1-0.2,0.1-0.3l0,0
		l-0.1,0.2c-0.7,1.4-0.9,3.1-0.5,4.6C917.5,1004,918.3,1005.8,920.1,1006.3c0.4,0.1,0.8,0.2,1.1,0.2h0.1v-0.1
		C921,1006.4,920.6,1006.4,920.1,1006.3z"/>
	<path d="M917,999.9c0-0.1,0-0.3,0.1-0.4C917,999.6,917,999.8,917,999.9z"/>
	<path d="M920.3,1006.3h-0.2c0.4,0.1,0.8,0.1,1.2,0.1l0,0C921,1006.4,920.7,1006.4,920.3,1006.3z"/>
	<path d="M917.6,997.9c0,0.1-0.1,0.2-0.1,0.3C917.5,998.1,917.6,998.1,917.6,997.9L917.6,997.9z"/>
	<path d="M917.1,999.2c0.1-0.3,0.2-0.6,0.3-0.9C917.3,998.6,917.2,998.9,917.1,999.2z"/>
	<path d="M916.9,1001.5c0,0.1,0,0.2,0,0.3C916.9,1001.7,916.9,1001.6,916.9,1001.5L916.9,1001.5z"/>
	<path d="M916.9,1000.4c0,0.1,0,0.3,0,0.4C916.9,1000.7,916.9,1000.6,916.9,1000.4z"/>
	<path d="M916.9,1000.8c0,0.2,0,0.4,0,0.6C916.9,1001.2,916.9,1001.1,916.9,1000.8C916.9,1000.9,916.9,1000.9,916.9,1000.8z"/>
	<path d="M917.5,998.3L917.5,998.3L917.5,998.3z"/>
	<path d="M917,1001.8c0,0.1,0,0.2,0,0.3C917,1002,917,1001.9,917,1001.8L917,1001.8z"/>
	<path d="M917.1,999.5c0-0.1,0-0.2,0.1-0.3C917.1,999.3,917.1,999.4,917.1,999.5z"/>
	<path d="M916.9,1000.4c0-0.2,0-0.3,0.1-0.5C917,1000.1,917,1000.3,916.9,1000.4z"/>
	<path d="M921.1,1006.4c-0.3,0-0.5,0-0.8,0c0.3,0.1,0.6,0.1,1,0.1L921.1,1006.4L921.1,1006.4z"/>
	<path d="M917,1001.5c0,0.1,0,0.1,0,0.2l0,0C917,1001.7,917,1001.7,917,1001.5z"/>
	<path d="M929.7,1010.4c0.3-0.1,0.6-0.2,1-0.3v-0.1l-0.2,0.1C930.3,1010.1,930,1010.2,929.7,1010.4L929.7,1010.4
		c-0.2,0-0.3,0-0.4,0.1v0.1L929.7,1010.4L929.7,1010.4L929.7,1010.4z"/>
	<path d="M929.8,1010.3L929.8,1010.3L929.8,1010.3L929.8,1010.3z"/>
	<path d="M929.7,1010.3"/>
	<path d="M929.7,1010.4c0.3-0.1,0.5-0.2,0.8-0.3l0.2-0.1l0,0C930.4,1010.2,930.1,1010.3,929.7,1010.4z"/>
	<path d="M929.4,1010.6L929.4,1010.6c0.1-0.1,0.2-0.1,0.3-0.2L929.4,1010.6z"/>
	<path d="M921.1,1006.1L921.1,1006.1L921.1,1006.1L921.1,1006.1c-0.8-0.1-1.7-0.5-2.3-1.1l0,0c-0.1-0.1-0.2-0.2-0.3-0.3
		s-0.2-0.2-0.3-0.3c-0.7-1.3-1-2.8-0.6-4.2c0.1-0.3,0.2-0.6,0.3-0.9c0-0.1,0.1-0.3,0.2-0.4v-0.1c0,0.1,0,0.1-0.1,0.2
		c-0.2,0.4-0.3,0.7-0.4,1.1c-0.4,1.5-0.1,3,0.6,4.3c0.1,0.1,0.2,0.2,0.3,0.4c0.1,0.1,0.2,0.2,0.3,0.3l0,0
		C919.4,1005.6,920.2,1006,921.1,1006.1L921.1,1006.1z"/>
	<path d="M918,998.8c-0.1,0.1-0.1,0.3-0.2,0.4C917.9,999.1,918,999,918,998.8L918,998.8z"/>
	<path d="M918.7,1005"/>
	<path d="M918.4,1004.7c-0.1-0.1-0.2-0.2-0.3-0.4C918.2,1004.5,918.3,1004.6,918.4,1004.7z"/>
	<path d="M917.6,1000.1c0.1-0.3,0.2-0.6,0.3-0.9C917.7,999.5,917.7,999.8,917.6,1000.1z"/>
	<path d="M918.7,1005c0.6,0.6,1.5,1,2.4,1H921C920.1,1005.9,919.4,1005.6,918.7,1005z"/>
	<path d="M918.7,1004.9c-0.1-0.1-0.2-0.2-0.3-0.3C918.5,1004.8,918.6,1004.9,918.7,1004.9z"/>
	<path d="M918,998.9L918,998.9c-0.1,0.1-0.1,0.3-0.2,0.4c-0.1,0.3-0.2,0.6-0.3,0.9c0.1-0.4,0.2-0.7,0.4-1
		C918,999,918,998.9,918,998.9z"/>
	<path d="M923.2,1010.9L923.2,1010.9L923.2,1010.9l-0.2,0.1c-0.1,0-0.2,0-0.2,0c1.1-0.1,0.9,0.9,0.4,1.1l0,0h-0.1H923h-0.2h-0.1
		l-0.1-0.1h-0.1c-0.1-0.1-0.1-0.1-0.2-0.2c-0.1-0.1-0.1-0.2-0.2-0.3v-0.1c0-0.1,0-0.1,0-0.2v-0.1v-0.1v-0.1v-0.1l0.1-0.1l0.1-0.1
		l0.1-0.1l0.1-0.1l0.1-0.1h0.1l0.2-0.1l0,0l0,0h0.1l-0.3-0.7h-0.1c-0.8,0.3-1.5,0.7-1.5,1.6c0,1.2,1.8,2.2,3,1.8h0.1L923.2,1010.9
		L923.2,1010.9z"/>
	<path d="M923,1011c-0.1,0-0.2,0-0.2,0C922.8,1011.1,922.9,1011.1,923,1011z"/>
	<path d="M923,1012.2L923,1012.2L923,1012.2z"/>
	<path d="M923.2,1010.9L923.2,1010.9L923.2,1010.9z"/>
	<path d="M922.1,1011.2C922.1,1011.1,922.1,1011.1,922.1,1011.2C922.1,1011.1,922.1,1011.1,922.1,1011.2z"/>
	<path d="M922.1,1011.4C922.1,1011.4,922.1,1011.3,922.1,1011.4C922.1,1011.3,922.1,1011.4,922.1,1011.4z"/>
	<path d="M922.9,1012.2L922.9,1012.2L922.9,1012.2z"/>
	<path d="M922.4,1010.8L922.4,1010.8L922.4,1010.8z"/>
	<path d="M922.5,1010.6L922.5,1010.6L922.5,1010.6z"/>
	<path d="M922.7,1010.4l0.2-0.1L922.7,1010.4z"/>
	<path d="M922.2,1011.6L922.2,1011.6L922.2,1011.6z"/>
	<path d="M922.7,1012.2L922.7,1012.2L922.7,1012.2z"/>
	<path d="M922.5,1012.1c-0.1-0.1-0.1-0.1-0.2-0.2C922.4,1012,922.4,1012,922.5,1012.1z"/>
	<path d="M922.2,1011L922.2,1011L922.2,1011z"/>
	<path d="M921.6,1007.5c-0.6,0-1.3,0.1-1.8,0.5c-0.3,0.2-1.6,1.5-1.5,1.8v0.1c0.9-1.6,2.3-1.7,3.7-1.5h0.2l-0.4-0.8L921.6,1007.5z"
		/>
	<path d="M924.9,993.2L924.9,993.2l1.3-0.3l0.7-0.2c1.9-0.5,3-0.9,3.7-2.7c0.2-0.7,0.4-1.4,0.5-2.1c0.3-1.5,0.6-2.9,1.7-4.1
		c1-1.1,2.2-2,3.6-2.5h0.1c0.9-0.3,2.9-1,4.1-0.8v-0.1c-1.2-0.2-3.2,0.4-4.2,0.8h-0.1c-1.4,0.5-2.7,1.3-3.6,2.5
		c-1.1,1.3-1.4,2.7-1.7,4.2c-0.1,0.7-0.3,1.4-0.5,2.1c-0.6,1.9-1.7,2.2-3.6,2.7l-0.7,0.2c-1.3,0.3-2.6,0.7-3.9,1.2v0.1
		C923.1,993.7,923.9,993.5,924.9,993.2z"/>
	<path d="M940.5,980.6c-1.2,0.1-2.3,0.4-3.4,0.9c-1.6,0.5-3,1.5-4,2.7c-0.9,1.2-1.5,2.7-1.8,4.2c-0.2,0.6-0.4,1.3-0.6,2
		c-0.9,2.6-2.9,3-5.3,3.4c-0.6,0.1-1.1,0.2-1.7,0.4c-0.4,0.1-0.8,0.2-1.2,0.4l0,0l0,0v0.1l0,0l0,0c0.4-0.1,0.8-0.3,1.2-0.4
		c0.6-0.1,1.2-0.2,1.7-0.4c2.3-0.4,4.4-0.8,5.3-3.4c0.2-0.7,0.4-1.3,0.6-2c0.3-1.5,0.9-2.9,1.8-4.2c1.1-1.3,2.4-2.2,4-2.7
		c0.4-0.1,0.7-0.3,1-0.4h0.1c0.2-0.1,0.4-0.1,0.6-0.2l0.2-0.1h0.1h0.1c0.5-0.1,1-0.2,1.5-0.2v-0.1H940.5L940.5,980.6z"/>
	<path d="M939.1,980.9L939.1,980.9L939.1,980.9L939.1,980.9z"/>
	<path d="M938.8,981c-0.2,0.1-0.4,0.1-0.6,0.2L938.8,981L938.8,981z"/>
	<path d="M939.7,980.7L939.7,980.7c0.4-0.1,0.7-0.1,1-0.1l0,0c-0.5,0-1,0.1-1.5,0.2C939.4,980.8,939.6,980.8,939.7,980.7z"/>
	<path d="M922.5,994.6L922.5,994.6L922.5,994.6L922.5,994.6z"/>
	<path d="M922.4,994.5"/>
	<path d="M924.9,993.2l1.3-0.3L924.9,993.2z"/>
	<path d="M938.2,981.1L938.2,981.1L938.2,981.1L938.2,981.1z"/>
	<path d="M939.1,980.9L939.1,980.9L939.1,980.9z"/>
	<path d="M938.7,981l-0.5,0.1h-0.1L938.7,981z"/>
	<path d="M939.7,980.7c-0.2,0-0.3,0.1-0.5,0.1h-0.1H939C939.3,980.8,939.5,980.8,939.7,980.7z"/>
	<path d="M939.8,980.7c0.2,0,0.5-0.1,0.7-0.1h0.2l0,0C940.4,980.6,940.1,980.7,939.8,980.7z"/>
	<path d="M923.7,997.6c1-0.6,2.2-1,3.4-1.2c1.5-0.3,3.2-0.4,4.1-1.8c-0.7,1.9-2.7,2-4.2,2.5c-1,0.3-2,0.7-2.9,1.3l1,2.4
		c1.1-1.6,3.9-2.5,5.5-2.4c-1.3,0.2-3.6,1.5-4.3,2.6c-0.6,1-0.1,2,0.2,3l1.3,2.9c0.4-1,0.3-2.2,1-3.2c1.1-1.6,3-2.3,4.8-2.7
		c-1.3,0.5-2.5,1.3-3.5,2.4c-0.9,1.1-0.7,1.9-1,3.3c-0.1,0.5-0.3,1-0.7,1.4l0.4,0.9c0.6-0.4,1.1-0.9,1.5-1.5
		c0.7-1.3,0.5-2.9,1.6-4.1c0.1-0.2,0.3-0.3,0.5-0.4h0.1c0.2-0.1,0.4-0.2,0.6-0.3l0,0c0.5-0.2,1-0.4,1.5-0.5l1-2.2h-0.1l0,0l0,0
		c-0.2,0-0.4-0.1-0.5-0.3c0,0,0,0,0-0.1s-0.1-0.1-0.1-0.2c0-0.1-0.1-0.2-0.1-0.3c0-0.6,0.4-1.1-0.3-1.4c-0.5-0.2-0.7-0.8,0.1-1
		c-0.4,0.1-0.8-0.1-0.9-0.5c-0.1-0.6,0.6-0.6,0.3-1.2c-0.2-0.4-1-0.4-0.9-1c0-0.5,0.5-1,0.8-1.3c0.4-0.5,0.7-1.2,0.9-1.8
		c0-0.6,0-1.2-0.2-1.7c-0.1-0.9,0-1.7,0.4-2.5c0.3-0.5,0.7-1,1.1-1.4c0.9-0.8,2-1.4,3.1-1.9c-1.2,0.6-0.4,2.3,0.2,3
		c0.1,0.1,0.3,0.3,0.4,0.4l0.1,0.1l0,0c0.1,0.1,0.3,0.2,0.4,0.3l0.5,0.3l0.1,0.1l0.3,0.2l1-2.2c0.4-0.7,0.6-1.5,0.7-2.3
		c0-0.1,0-0.5-1.1-0.8l-0.5-0.1v-1.3H941c-2.9,0.5-5.6,2.1-7.3,4.5c-1.9,2.7-0.9,7-4.3,8.7c-0.2,0.1-0.5,0.2-0.7,0.3l-0.3,0.1
		l-0.4,0.1c-1.5,0.5-3,0.9-4.4,1.5L923.7,997.6z"/>
	<path d="M935.2,999.6"/>
	<path d="M940.6,987.4L940.6,987.4l-0.3-0.2L940.6,987.4z"/>
	<path d="M939.7,986.8l0.5,0.3L939.7,986.8z"/>
	<path d="M939.3,986.5L939.3,986.5L939.3,986.5L939.3,986.5z"/>
	<path d="M927.4,994.5l0.4-0.1L927.4,994.5z"/>
	<path d="M928.1,994.2c0.2-0.1,0.5-0.2,0.7-0.3C928.6,994,928.3,994.1,928.1,994.2z"/>
	<path d="M934.3,1001.9L934.3,1001.9c-0.5,0.1-1,0.3-1.5,0.5c0.4-0.2,0.9-0.4,1.3-0.5H934.3z"/>
	<path d="M932.2,1002.8c0.2-0.1,0.4-0.2,0.6-0.3C932.6,1002.5,932.4,1002.6,932.2,1002.8z"/>
	<path d="M931.7,1003.2c0.1-0.2,0.3-0.3,0.5-0.4C932,1002.9,931.8,1003.1,931.7,1003.2z"/>
	<path d="M939.7,986.8c-0.1-0.1-0.3-0.2-0.4-0.3l0.1,0.1L939.7,986.8z"/>
	<path d="M939.2,986.4c-0.1-0.1-0.3-0.3-0.4-0.4C938.9,986.1,939,986.2,939.2,986.4L939.2,986.4z"/>
	<path d="M940.2,987.1L940.2,987.1L940.2,987.1z"/>
	<path d="M934.5,999.3c-0.1-0.1-0.1-0.1-0.1-0.2C934.4,999.1,934.5,999.2,934.5,999.3z"/>
	<path d="M940.5,987.3L940.5,987.3L940.5,987.3l-0.2-0.1l-0.1-0.1l-0.5-0.3l-0.2-0.2C939.8,986.9,940.2,987.1,940.5,987.3z"/>
	<path d="M935.1,999.6c-0.2,0-0.4-0.1-0.5-0.3C934.7,999.5,934.9,999.6,935.1,999.6z"/>
	<path d="M939.3,986.4L939.3,986.4L939.3,986.4L939.3,986.4z"/>
	<path d="M950,980.5v0.9c-0.7,0.1-1.3,0.5-1.8,1c-0.7,1.2-1.3,2.4-1.8,3.7l-12.3,27.7c-0.4,0.7-0.6,1.5-0.7,2.4
		c0,0.8,0.5,1.3,1.6,1.5v0.9h-10.6v-0.9c1-0.2,1.5-0.7,1.6-1.5v-0.1c0-0.1,0-0.3-0.1-0.4c-0.2-0.6-0.4-1.3-0.7-1.9l-3.3-7.5
		l-0.1-0.3v-0.1l-0.2-0.4l-2.5-5.7l-0.8-1.9v-0.1l-0.3-0.7l-5.2-11.9c-0.4-1-0.9-2-1.5-2.9c-0.5-0.5-1.1-0.8-1.8-1v-0.9h9.1v0.9
		c-1.1,0.3-1.6,0.7-1.6,1.4c0.1,0.9,0.3,1.8,0.7,2.6l3.9,8.9l0,0l0,0l0.2,0.4l0,0v0.1l0,0l0.6,1.3l0,0l0.8,1.8l0.4,0.8l1.2,2.7
		l1.8,4.2l0.8,1.8l0.4,0.9l0.4,0.9l0.3,0.7l0.3,0.6l0.2,0.4v0.1l0.9,2.1l0.2,0.6l1.7-3.9l0.5-1.1l4-9l5.1-11.7l1.1-2.4
		c0.4-0.8,0.7-1.7,0.8-2.6c0-0.7-0.5-1.2-1.6-1.4v-0.9L950,980.5L950,980.5z"/>
	<path d="M939.6,995.9L939.6,995.9L939.6,995.9z"/>
	<path d="M928.4,1011.2L928.4,1011.2L928.4,1011.2z"/>
	<path d="M921.4,995L921.4,995L921.4,995z"/>
</g>
<g>
	<path d="M967.8,1032.1H807.9l-0.1-64h160V1032.1z M808.8,1031.1h158v-62h-158V1031.1L808.8,1031.1z"/>
</g>
<g>
	<path d="M813.1,1043.1h-0.7v-7.5h-3.6v7.5h-0.7v-8.1h5V1043.1L813.1,1043.1z"/>
	<path d="M815.6,1039.8v3.4h-0.7v-8.1h2.4c0.7,0,1.3,0.2,1.6,0.6c0.4,0.4,0.6,1,0.6,1.7c0,0.7-0.2,1.3-0.6,1.7
		c-0.4,0.4-0.9,0.6-1.6,0.6L815.6,1039.8L815.6,1039.8z M815.6,1039.2h1.7c0.5,0,0.9-0.2,1.2-0.5c0.3-0.3,0.4-0.8,0.4-1.3
		s-0.1-0.9-0.4-1.3c-0.3-0.3-0.6-0.5-1.2-0.5h-1.7V1039.2z"/>
	<path d="M825.6,1040.2c0,1-0.2,1.7-0.7,2.2s-1.1,0.8-1.9,0.8s-1.4-0.3-1.8-0.8c-0.4-0.5-0.7-1.3-0.7-2.2v-2.3
		c0-1,0.2-1.7,0.7-2.3c0.4-0.5,1.1-0.8,1.8-0.8c0.8,0,1.4,0.3,1.9,0.8s0.7,1.3,0.7,2.3V1040.2L825.6,1040.2z M825,1037.9
		c0-0.8-0.2-1.4-0.5-1.8s-0.8-0.6-1.4-0.6c-0.6,0-1.1,0.2-1.4,0.6c-0.3,0.4-0.5,1-0.5,1.8v2.3c0,0.8,0.2,1.4,0.5,1.8
		s0.8,0.6,1.4,0.6c0.6,0,1.1-0.2,1.4-0.6c0.3-0.4,0.5-1,0.5-1.8V1037.9z"/>
	<path d="M830.2,1035.9h0.1c0.8,0,1.5,0.3,2,0.9c0.5,0.6,0.8,1.4,0.8,2.3c0,0.9-0.3,1.7-0.8,2.3s-1.2,0.9-2,0.9h-0.1
		v1.2h-0.7v-1.2h-0.1c-0.8,0-1.5-0.3-2-0.9s-0.8-1.4-0.8-2.3s0.3-1.7,0.8-2.3s1.2-0.9,2-0.9h0.1v-1.2h0.7V1035.9z M829.4,1036.4
		c-0.6,0-1.2,0.2-1.5,0.7c-0.4,0.5-0.6,1.1-0.6,1.9s0.2,1.4,0.6,1.9c0.4,0.5,0.9,0.7,1.5,0.7h0.1v-5.3L829.4,1036.4L829.4,1036.4z
		 M830.2,1036.4v5.3h0.1c0.6,0,1.2-0.2,1.5-0.7c0.4-0.5,0.6-1.1,0.6-1.9s-0.2-1.4-0.6-1.9c-0.4-0.5-0.9-0.7-1.5-0.7L830.2,1036.4
		L830.2,1036.4z"/>
	<path d="M838.2,1039.2H835v3.3h3.6v0.6h-4.3v-8.1h4.3v0.6H835v3h3.2V1039.2z"/>
	<path d="M844.3,1040.8L844.3,1040.8c0,0.8-0.2,1.4-0.6,1.8c-0.4,0.4-1,0.6-1.7,0.6s-1.3-0.3-1.8-0.8
		s-0.7-1.3-0.7-2.3v-2.2c0-1,0.2-1.7,0.7-2.2c0.4-0.5,1-0.8,1.8-0.8c0.7,0,1.3,0.2,1.7,0.6s0.6,1,0.6,1.8l0,0h-0.6
		c0-0.6-0.2-1.1-0.4-1.4c-0.3-0.3-0.7-0.5-1.2-0.5c-0.6,0-1,0.2-1.3,0.6c-0.3,0.4-0.5,1-0.5,1.8v2.3c0,0.8,0.2,1.4,0.5,1.8
		s0.7,0.6,1.3,0.6c0.5,0,1-0.1,1.2-0.5c0.3-0.3,0.4-0.8,0.4-1.4L844.3,1040.8L844.3,1040.8z"/>
	<path d="M850.2,1040.8L850.2,1040.8c0,0.8-0.2,1.4-0.6,1.8c-0.4,0.4-1,0.6-1.7,0.6s-1.3-0.3-1.8-0.8
		c-0.4-0.5-0.7-1.3-0.7-2.3v-2.2c0-1,0.2-1.7,0.7-2.2c0.4-0.5,1-0.8,1.8-0.8c0.7,0,1.3,0.2,1.7,0.6c0.4,0.4,0.6,1,0.6,1.8l0,0h-0.6
		c0-0.6-0.2-1.1-0.4-1.4c-0.3-0.3-0.7-0.5-1.2-0.5c-0.6,0-1,0.2-1.3,0.6c-0.3,0.4-0.5,1-0.5,1.8v2.3c0,0.8,0.2,1.4,0.5,1.8
		s0.7,0.6,1.3,0.6c0.5,0,1-0.1,1.2-0.5c0.3-0.3,0.4-0.8,0.4-1.4L850.2,1040.8L850.2,1040.8z"/>
	<path d="M856,1035h0.7v8.1H856v-6.7l0,0l-3.6,6.7h-0.7v-8.1h0.7v6.7l0,0L856,1035z"/>
	<path d="M863.3,1040.2c0,1-0.2,1.7-0.7,2.2s-1.1,0.8-1.9,0.8s-1.4-0.3-1.8-0.8s-0.7-1.3-0.7-2.2v-2.3
		c0-1,0.2-1.7,0.7-2.3c0.4-0.5,1.1-0.8,1.8-0.8c0.8,0,1.4,0.3,1.9,0.8s0.7,1.3,0.7,2.3V1040.2L863.3,1040.2z M862.6,1037.9
		c0-0.8-0.2-1.4-0.5-1.8s-0.8-0.6-1.4-0.6s-1.1,0.2-1.4,0.6c-0.3,0.4-0.5,1-0.5,1.8v2.3c0,0.8,0.2,1.4,0.5,1.8s0.8,0.6,1.4,0.6
		c0.6,0,1.1-0.2,1.4-0.6c0.3-0.4,0.5-1,0.5-1.8V1037.9z"/>
	<path d="M869.7,1043.1H869v-3.7h-3.6v3.7h-0.7v-8.1h0.7v3.8h3.6v-3.8h0.7V1043.1z"/>
	<path d="M875.2,1040.9h-3l-0.7,2.2h-0.7l2.6-8.1h0.6l2.5,8.1h-0.7L875.2,1040.9z M872.5,1040.3h2.6l-1.3-4.2l0,0
		L872.5,1040.3z"/>
	<path d="M882.7,1035v8.1H882v-7.5h-2.7l-0.1,3.1c0,1.6-0.2,2.7-0.5,3.4c-0.3,0.7-0.8,1-1.5,1H877v-0.6h0.2
		c0.4,0,0.8-0.3,1-0.8s0.3-1.6,0.3-3l0.1-3.7H882.7z"/>
	<path d="M885.2,1038.5h1.7c0.7,0,1.3,0.2,1.7,0.6s0.6,1,0.6,1.7c0,0.7-0.2,1.3-0.6,1.7c-0.4,0.4-0.9,0.6-1.6,0.6
		h-2.3v-8.1h0.7v3.5H885.2z M885.2,1039.1v3.4h1.7c0.5,0,0.9-0.2,1.2-0.5c0.3-0.3,0.4-0.7,0.4-1.2s-0.1-0.9-0.4-1.2
		c-0.3-0.3-0.6-0.5-1.2-0.5H885.2z"/>
	<path d="M895.4,1043.1h-0.6v-3.7h-3.6v3.7h-0.7v-8.1h0.7v3.8h3.6v-3.8h0.7L895.4,1043.1L895.4,1043.1z"/>
	<path d="M901,1040.9h-3l-0.7,2.2h-0.7l2.6-8.1h0.6l2.5,8.1h-0.7L901,1040.9z M898.2,1040.3h2.6l-1.3-4.2l0,0
		L898.2,1040.3z"/>
	<path d="M903.8,1043.1h-0.7l1.6-3.5c-0.4-0.2-0.8-0.5-1-0.8c-0.2-0.4-0.4-0.8-0.4-1.3c0-0.8,0.2-1.4,0.6-1.8
		c0.4-0.4,1-0.6,1.7-0.6h2.1v8.1H907v-3.4h-1.8L903.8,1043.1z M907,1035.6h-1.4c-0.5,0-0.9,0.2-1.2,0.5c-0.3,0.3-0.4,0.8-0.4,1.3
		s0.1,1,0.4,1.3c0.3,0.3,0.6,0.5,1.1,0.5h1.5L907,1035.6L907,1035.6z"/>
	<path d="M913.3,1039.3h-0.9v3.8h-0.6v-8.1h0.7v3.7h0.8l2.6-3.7h0.8l-2.8,4l3,4.1h-0.8L913.3,1039.3z"/>
	<path d="M922.5,1040.2c0,1-0.2,1.7-0.7,2.2s-1.1,0.8-1.9,0.8s-1.4-0.3-1.8-0.8c-0.4-0.5-0.7-1.3-0.7-2.2v-2.3
		c0-1,0.2-1.7,0.7-2.3c0.4-0.5,1.1-0.8,1.8-0.8c0.8,0,1.4,0.3,1.9,0.8s0.7,1.3,0.7,2.3V1040.2L922.5,1040.2z M921.9,1037.9
		c0-0.8-0.2-1.4-0.5-1.8s-0.8-0.6-1.4-0.6c-0.6,0-1.1,0.2-1.4,0.6c-0.3,0.4-0.5,1-0.5,1.8v2.3c0,0.8,0.2,1.4,0.5,1.8
		c0.3,0.4,0.8,0.6,1.4,0.6c0.6,0,1.1-0.2,1.4-0.6c0.3-0.4,0.5-1,0.5-1.8V1037.9z"/>
	<path d="M928.4,1040.8L928.4,1040.8c0,0.8-0.2,1.4-0.6,1.8c-0.4,0.4-1,0.6-1.7,0.6s-1.3-0.3-1.8-0.8
		s-0.7-1.3-0.7-2.3v-2.2c0-1,0.2-1.7,0.7-2.2c0.4-0.5,1-0.8,1.8-0.8c0.7,0,1.3,0.2,1.7,0.6s0.6,1,0.6,1.8l0,0h-0.6
		c0-0.6-0.2-1.1-0.4-1.4c-0.3-0.3-0.7-0.5-1.2-0.5c-0.6,0-1,0.2-1.3,0.6c-0.3,0.4-0.5,1-0.5,1.8v2.3c0,0.8,0.2,1.4,0.5,1.8
		c0.3,0.4,0.7,0.6,1.3,0.6c0.5,0,1-0.1,1.2-0.5c0.3-0.3,0.4-0.8,0.4-1.4L928.4,1040.8L928.4,1040.8z"/>
	<path d="M930.7,1035l2.3,7.1l0,0l2.3-7.1h0.9v8.1h-0.7v-3.6l0.1-3.3l0,0l-2.3,6.9h-0.5l-2.3-6.8l0,0l0.1,3.3v3.6
		h-0.7v-8.1L930.7,1035L930.7,1035z"/>
	<path d="M941.8,1039.2h-3.2v3.3h3.6v0.6h-4.3v-8.1h4.3v0.6h-3.6v3h3.2V1039.2z"/>
	<path d="M948.1,1035.6h-2.3v7.5h-0.7v-7.5h-2.3v-0.6h5.2L948.1,1035.6L948.1,1035.6z"/>
	<path d="M953.6,1035h0.7v8.1h-0.7v-6.7l0,0l-3.6,6.7h-0.7v-8.1h0.7v6.7l0,0L953.6,1035z"/>
	<path d="M957.6,1039.3h-0.9v3.8H956v-8.1h0.7v3.7h0.8l2.6-3.7h0.8l-2.8,4l3,4.1h-0.8L957.6,1039.3z"/>
	<path d="M965.8,1040.9h-3l-0.7,2.2h-0.7l2.6-8.1h0.6l2.5,8.1h-0.7L965.8,1040.9z M963.1,1040.3h2.6l-1.3-4.2l0,0
		L963.1,1040.3z"/>
</g>
</svg>
