<?xml version="1.0" encoding="utf-8"?>
<!-- Generator: Adobe Illustrator 18.1.1, SVG Export Plug-In . SVG Version: 6.00 Build 0)  -->
<svg version="1.1" id="Layer_1" xmlns="http://www.w3.org/2000/svg" xmlns:xlink="http://www.w3.org/1999/xlink" x="0px" y="0px"
	 viewBox="0 0 310.4 310.4" enable-background="new 0 0 310.4 310.4" xml:space="preserve">
<g>
	<path d="M0,0v310.4h310.4V0H0z M291.2,291.2h-272v-272h272V291.2z M291.2,291.2"/>
	<g>
		<g>
			<path fill-rule="evenodd" clip-rule="evenodd" d="M143.4,202.1c-18.2-1.9-34.5-6.4-48.6-17.3c-1.7-1.4-3.5-2.7-5.1-4.2
				c-6.1-5.9-6.8-12.6-1.9-19.6c4.2-6,11.1-7.6,18.4-4.1c1.4,0.7,2.7,1.5,4,2.4c26.1,18,62,18.5,88.3,0.8c2.6-2,5.4-3.6,8.6-4.4
				c6.3-1.6,12.1,0.7,15.5,6.2c3.8,6.3,3.8,12.4-0.9,17.2c-7.3,7.4-16,12.8-25.7,16.6c-9.2,3.5-19.2,5.3-29.2,6.5
				c1.5,1.6,2.2,2.4,3.2,3.4c13.5,13.6,27.1,27.1,40.5,40.7c4.6,4.6,5.5,10.4,3,15.8c-2.8,5.9-8.9,9.8-15,9.3
				c-3.8-0.3-6.8-2.2-9.5-4.9c-10.2-10.2-20.6-20.3-30.5-30.7c-2.9-3-4.3-2.5-6.9,0.2c-10.2,10.5-20.7,20.9-31.1,31.3
				c-4.7,4.6-10.3,5.5-15.8,2.8c-5.8-2.8-9.5-8.7-9.2-14.7c0.2-4,2.2-7.1,4.9-9.9c13.4-13.3,26.7-26.7,40-40.1
				C141.3,204.4,142.1,203.5,143.4,202.1L143.4,202.1z M143.4,202.1"/>
			<path fill-rule="evenodd" clip-rule="evenodd" d="M154.5,155.6c-32.4-0.1-59-27-58.8-59.5c0.2-32.8,26.8-59.3,59.5-59.2
				c32.8,0.1,59.1,26.9,59,60.1C214,129.5,187.2,155.7,154.5,155.6L154.5,155.6z M183.9,96.3c-0.1-16.1-12.9-29-29-29
				c-16.2,0-29.2,13-29.1,29.3c0.1,16.1,13.1,28.8,29.2,28.7C171.2,125.3,184,112.4,183.9,96.3L183.9,96.3z M183.9,96.3"/>
		</g>
	</g>
</g>
</svg>
