<?xml version="1.0" encoding="utf-8"?>
<!-- Generator: Adobe Illustrator 18.1.1, SVG Export Plug-In . SVG Version: 6.00 Build 0)  -->
<svg version="1.1" id="Layer_1" xmlns="http://www.w3.org/2000/svg" xmlns:xlink="http://www.w3.org/1999/xlink" x="0px" y="0px"
	 viewBox="312 -18 96 96" enable-background="new 312 -18 96 96" xml:space="preserve">
<path fill="#010101" d="M390.5,18.1h-7.3V7.8c0-3.3-2.7-6-6-6h-46.4c-3.3,0-6,2.7-6,6v26.8c0,3.3,2.7,6,6,6h7.3v10.3
	c0,3.3,2.7,6,6,6h46.4c3.3,0,6-2.7,6-6V24.1C396.4,20.8,393.8,18.1,390.5,18.1z M344.1,18.1c-0.1,0-0.2,0-0.3,0h-15.5v-4.5h51.6V18
	h-35.7V18.1z M330.7,5.3h46.4c1.4,0,2.5,1.1,2.5,2.5v2.4h-51.5V7.8C328.2,6.4,329.3,5.3,330.7,5.3z M330.7,37.3
	c-1.4,0-2.5-1.1-2.5-2.5V21.6h10.4c-0.4,0.8-0.6,1.6-0.6,2.5v13.1H330.7L330.7,37.3z M393,51c0,1.4-1.1,2.5-2.5,2.5h-46.4
	c-1.4,0-2.5-1.1-2.5-2.5V24.1c0-1.3,1-2.4,2.3-2.5h37.6c0.1,0,0.1,0,0.2,0h8.8c1.4,0,2.5,1.1,2.5,2.5V51L393,51z"/>
<g>
	<path d="M351.8,31.4c0-1.1,0.2-2.1,0.7-3.1c0.5-1,1.2-1.7,2.1-2.2s2.1-0.8,3.4-0.8c1.9,0,3.5,0.6,4.6,1.7c1.1,1.1,1.7,2.6,1.7,4.4
		c0,1.9-0.6,3.3-1.7,4.4s-2.6,1.7-4.6,1.7c-1.3,0-2.5-0.3-3.4-0.8c-1-0.5-1.7-1.3-2.1-2.2C352.1,33.5,351.8,32.5,351.8,31.4z
		 M356.3,31.4c0,1.3,0.2,2.3,0.6,2.8c0.3,0.4,0.7,0.6,1.2,0.6c0.5,0,0.9-0.2,1.2-0.6c0.4-0.6,0.6-1.5,0.6-2.8c0-1.3-0.2-2.2-0.6-2.8
		c-0.3-0.4-0.7-0.6-1.2-0.6c-0.5,0-0.9,0.2-1.2,0.6C356.5,29.2,356.3,30.1,356.3,31.4z M371.5,25.3h3.3L361.4,50h-3.3L371.5,25.3z
		 M368.5,43.9c0-1.1,0.2-2.1,0.7-3.1s1.2-1.7,2.1-2.2c1-0.5,2.1-0.8,3.4-0.8c1.9,0,3.5,0.6,4.6,1.7c1.1,1.1,1.7,2.6,1.7,4.4
		c0,1.8-0.6,3.3-1.7,4.4c-1.1,1.1-2.6,1.7-4.6,1.7c-1.3,0-2.4-0.3-3.4-0.8c-1-0.5-1.7-1.3-2.1-2.2C368.7,46,368.5,45,368.5,43.9z
		 M373,43.9c0,1.3,0.2,2.3,0.6,2.8c0.3,0.4,0.7,0.6,1.2,0.6c0.5,0,0.9-0.2,1.2-0.6c0.4-0.6,0.6-1.5,0.6-2.8c0-1.3-0.2-2.3-0.6-2.9
		c-0.3-0.4-0.7-0.6-1.2-0.6c-0.5,0-0.9,0.2-1.2,0.6C373.2,41.7,373,42.6,373,43.9z"/>
</g>
</svg>
