<?xml version="1.0" encoding="utf-8"?>
<!-- Generator: Adobe Illustrator 18.1.1, SVG Export Plug-In . SVG Version: 6.00 Build 0)  -->
<svg version="1.1" id="Layer_1" xmlns="http://www.w3.org/2000/svg" xmlns:xlink="http://www.w3.org/1999/xlink" x="0px" y="0px"
	 viewBox="0 0 22 22" enable-background="new 0 0 22 22" xml:space="preserve">
<g>
	<g>
		<path d="M21.8,20.9l-5.3-5.3c1.4-1.6,2.3-3.8,2.3-6.2c0-5.2-4.2-9.4-9.4-9.4C4.2,0,0,4.2,0,9.4s4.2,9.4,9.4,9.4
			c2.4,0,4.5-0.9,6.2-2.3l5.3,5.3c0.1,0.1,0.3,0.2,0.5,0.2c0.2,0,0.3-0.1,0.5-0.2C22.1,21.6,22.1,21.1,21.8,20.9L21.8,20.9z
			 M1.3,9.4c0-4.4,3.6-8.1,8.1-8.1c4.4,0,8.1,3.6,8.1,8.1s-3.6,8.1-8.1,8.1C4.9,17.5,1.3,13.8,1.3,9.4L1.3,9.4z M1.3,9.4"/>
	</g>
</g>
</svg>
