<?xml version="1.0" encoding="utf-8"?>
<!-- Generator: Adobe Illustrator 18.1.1, SVG Export Plug-In . SVG Version: 6.00 Build 0)  -->
<svg version="1.1" id="Layer_1" xmlns="http://www.w3.org/2000/svg" xmlns:xlink="http://www.w3.org/1999/xlink" x="0px" y="0px"
	 viewBox="0 0 40 37.2" enable-background="new 0 0 40 37.2" xml:space="preserve">
<g>
	<g>
		<path d="M39.9,11.1C39.4,4.7,34.8,0,29.1,0c-3.8,0-7.3,2-9.2,5.3C18,2,14.6,0,10.9,0C5.2,0,0.7,4.7,0.1,11.1
			c0,0.3-0.2,1.8,0.3,4.2c0.8,3.5,2.7,6.7,5.5,9.2l13.9,12.6l14.2-12.6c2.8-2.5,4.7-5.7,5.5-9.2C40.2,12.9,40,11.4,39.9,11.1
			L39.9,11.1z M38.1,14.9c-0.8,3.2-2.5,6.1-5.1,8.5L19.9,35.1L7,23.4c-2.6-2.3-4.3-5.2-5.1-8.5c-0.5-2.3-0.3-3.6-0.3-3.6l0-0.1
			C2.1,5.6,6,1.5,10.9,1.5c3.6,0,6.8,2.2,8.3,5.8L19.9,9l0.7-1.7c1.5-3.5,4.8-5.8,8.5-5.8c4.9,0,8.8,4.1,9.3,9.8
			C38.4,11.3,38.6,12.6,38.1,14.9L38.1,14.9z M38.1,14.9"/>
	</g>
</g>
</svg>
