<?xml version="1.0" encoding="utf-8"?>
<!-- Generator: Adobe Illustrator 18.1.1, SVG Export Plug-In . SVG Version: 6.00 Build 0)  -->
<svg version="1.1" id="Layer_1" xmlns="http://www.w3.org/2000/svg" xmlns:xlink="http://www.w3.org/1999/xlink" x="0px" y="0px"
	 viewBox="0 0 32 32" enable-background="new 0 0 32 32" xml:space="preserve">
<g>
	<g>
		<path d="M28.3,15.9H3c-0.2,0-0.4-0.2-0.4-0.4c0-0.2,0.2-0.4,0.4-0.4h25.3c0.2,0,0.4,0.2,0.4,0.4C28.7,15.8,28.5,15.9,28.3,15.9
			L28.3,15.9z M28.3,15.9"/>
		<path d="M13,26c-0.1,0-0.2,0-0.3-0.1l-10-10c-0.1-0.1-0.1-0.2-0.1-0.3c0-0.1,0-0.2,0.1-0.3l10-10c0.2-0.2,0.4-0.2,0.6,0
			c0.2,0.2,0.2,0.4,0,0.6l-9.7,9.7l9.7,9.7c0.2,0.2,0.2,0.4,0,0.6C13.2,25.9,13.1,26,13,26L13,26z M13,26"/>
	</g>
</g>
</svg>
