<?xml version="1.0" encoding="utf-8"?>
<!-- Generator: Adobe Illustrator 18.1.1, SVG Export Plug-In . SVG Version: 6.00 Build 0)  -->
<svg version="1.1" id="Layer_1" xmlns="http://www.w3.org/2000/svg" xmlns:xlink="http://www.w3.org/1999/xlink" x="0px" y="0px"
	 viewBox="651.6 9.4 76.5 59.9" enable-background="new 651.6 9.4 76.5 59.9" xml:space="preserve">
<g>
	<path fill="#E2566A" d="M659.3,27.8c0.9,0.6,27.8,19.1,28.6,19.4c0.8,0.3,1.5,0.4,2.2,0.4c0.6,0,1.4-0.1,2.2-0.4
		c0.8-0.3,17.9-11.9,28.6-19.4c2.2-1.4,3.8-3.2,5.3-5.3c1.4-2.1,2.1-4.2,2.1-6.4c0-1.9-0.6-3.5-1.9-4.6c-1.3-1.4-2.9-2.1-4.7-2.1
		h-62.7c-2.2,0-3.8,0.6-5,2.2c-1.2,1.4-1.8,3.3-1.8,5.5c0,1.8,0.8,3.7,2.3,5.8C655.8,24.9,657.5,26.6,659.3,27.8z"/>
	<path fill="#E2566A" d="M694.6,51.9c-1.8,0.6-3.3,1-4.7,1c-1.5,0-3.1-0.4-4.7-1c-1.7-0.6-32.2-21.9-33.5-23.3v33.8
		c0,1.9,0.8,3.6,2.1,4.9c1.4,1.4,2.9,2.1,4.9,2.1h62.7c1.9,0,3.6-0.8,4.9-2.1c1.4-1.4,2.1-2.9,2.1-4.9V28.5
		C726.9,29.9,696.2,51.2,694.6,51.9z"/>
</g>
</svg>
