<?xml version="1.0" encoding="utf-8"?>
<!-- Generator: Adobe Illustrator 18.1.1, SVG Export Plug-In . SVG Version: 6.00 Build 0)  -->
<svg version="1.1" id="Layer_1" xmlns="http://www.w3.org/2000/svg" xmlns:xlink="http://www.w3.org/1999/xlink" x="0px" y="0px"
	 viewBox="0 0 8 12" enable-background="new 0 0 8 12" xml:space="preserve">
<g>
	<path fill="#E2566A" d="M8,4c0,0.6-0.1,1-0.3,1.4l-2.8,6c-0.1,0.2-0.2,0.3-0.4,0.4S4.2,12,4,12s-0.4,0-0.5-0.1s-0.3-0.2-0.4-0.4
		l-2.9-6C0.1,5,0,4.6,0,4c0-1.1,0.4-2,1.2-2.8S2.9,0,4,0c1.1,0,2,0.4,2.8,1.2S8,2.9,8,4z M5.4,5.4C5.8,5,6,4.6,6,4
		c0-0.6-0.2-1-0.6-1.4S4.6,2,4,2S3,2.2,2.6,2.6S2,3.4,2,4c0,0.6,0.2,1,0.6,1.4S3.4,6,4,6S5,5.8,5.4,5.4z"/>
</g>
</svg>
