<?xml version="1.0" encoding="utf-8"?>
<!-- Generator: Adobe Illustrator 18.1.1, SVG Export Plug-In . SVG Version: 6.00 Build 0)  -->
<svg version="1.1" id="Layer_1" xmlns="http://www.w3.org/2000/svg" xmlns:xlink="http://www.w3.org/1999/xlink" x="0px" y="0px"
	 viewBox="0 0 32 32" enable-background="new 0 0 32 32" xml:space="preserve">
<g>
	<g>
		<path fill="#E2566A" d="M3,15.1h25.3c0.2,0,0.4,0.2,0.4,0.4c0,0.2-0.2,0.4-0.4,0.4H3c-0.2,0-0.4-0.2-0.4-0.4
			C2.6,15.3,2.7,15.1,3,15.1L3,15.1z M3,15.1"/>
		<path fill="#E2566A" d="M18.2,5.1c0.1,0,0.2,0,0.3,0.1l10,10c0.1,0.1,0.1,0.2,0.1,0.3c0,0.1,0,0.2-0.1,0.3l-10,10
			c-0.2,0.2-0.4,0.2-0.6,0c-0.2-0.2-0.2-0.4,0-0.6l9.7-9.7L18,5.8c-0.2-0.2-0.2-0.4,0-0.6C18,5.1,18.1,5.1,18.2,5.1L18.2,5.1z
			 M18.2,5.1"/>
	</g>
</g>
</svg>
