<?xml version="1.0" encoding="utf-8"?>
<!-- Generator: Adobe Illustrator 18.1.1, SVG Export Plug-In . SVG Version: 6.00 Build 0)  -->
<svg version="1.1" id="Layer_1" xmlns="http://www.w3.org/2000/svg" xmlns:xlink="http://www.w3.org/1999/xlink" x="0px" y="0px"
	 viewBox="0 0 11 11" enable-background="new 0 0 11 11" xml:space="preserve">
<g>
	<path fill="#E2566A" d="M11,8.7c0,0.1,0,0.3-0.1,0.6c-0.1,0.2-0.1,0.4-0.2,0.5c-0.1,0.3-0.4,0.5-1,0.8c-0.5,0.3-1,0.4-1.5,0.4
		c-0.1,0-0.3,0-0.4,0c-0.1,0-0.3-0.1-0.4-0.1c-0.2,0-0.3-0.1-0.4-0.1c-0.1,0-0.2-0.1-0.4-0.2c-0.2-0.1-0.3-0.1-0.4-0.1
		c-0.5-0.2-1-0.4-1.4-0.6c-0.7-0.4-1.4-1-2.1-1.7S1.6,6.7,1.2,6.1C0.9,5.7,0.7,5.2,0.5,4.7c0,0-0.1-0.2-0.1-0.4
		C0.3,4.1,0.3,4,0.2,3.9c0-0.1-0.1-0.2-0.1-0.4C0.1,3.3,0,3.2,0,3.1c0-0.1,0-0.3,0-0.4c0-0.5,0.1-1,0.4-1.5c0.3-0.5,0.6-0.8,0.8-1
		c0.1-0.1,0.3-0.1,0.5-0.2C2,0,2.2,0,2.3,0c0.1,0,0.1,0,0.2,0c0.1,0,0.2,0.2,0.4,0.6C2.9,0.7,3,0.9,3.1,1c0.1,0.2,0.2,0.3,0.3,0.5
		C3.5,1.7,3.6,1.8,3.6,2c0,0,0.1,0.1,0.1,0.2c0.1,0.1,0.1,0.2,0.2,0.3C4,2.5,4,2.6,4,2.6C4,2.8,3.9,2.9,3.8,3S3.5,3.3,3.3,3.5
		C3.1,3.6,3,3.7,2.8,3.9C2.7,4,2.6,4.1,2.6,4.2c0,0,0,0.1,0,0.2c0,0.1,0,0.1,0.1,0.2c0,0,0.1,0.1,0.1,0.2c0.1,0.1,0.1,0.1,0.1,0.1
		c0.4,0.7,0.8,1.3,1.4,1.8c0.5,0.5,1.1,1,1.8,1.4c0,0,0.1,0,0.1,0.1c0.1,0.1,0.2,0.1,0.2,0.1c0,0,0.1,0,0.2,0.1c0.1,0,0.1,0,0.2,0
		c0.1,0,0.2-0.1,0.4-0.2C7.3,8,7.4,7.9,7.5,7.7C7.7,7.5,7.8,7.4,8,7.2C8.1,7.1,8.2,7,8.4,7c0.1,0,0.1,0,0.2,0.1
		c0.1,0,0.2,0.1,0.3,0.2C9,7.3,9,7.3,9,7.4c0.1,0.1,0.3,0.2,0.4,0.2C9.6,7.7,9.8,7.8,10,7.9c0.2,0.1,0.3,0.2,0.4,0.2
		c0.4,0.2,0.6,0.3,0.6,0.4C11,8.6,11,8.6,11,8.7z"/>
</g>
</svg>
