<?xml version="1.0" encoding="utf-8"?><svg viewBox="0 0 76.5 59.9" xmlns="http://www.w3.org/2000/svg" xmlns:xlink="http://www.w3.org/1999/xlink"><style>:root>svg{display:none}:root>svg:target{display:block}</style><svg viewBox="0 0 32 32" id="back" xmlns="http://www.w3.org/2000/svg"><path d="M28.3 15.9H3c-.2 0-.4-.2-.4-.4s.2-.4.4-.4h25.3c.2 0 .4.2.4.4 0 .3-.2.4-.4.4zm0 0"/><path d="M13 26c-.1 0-.2 0-.3-.1l-10-10c-.1-.1-.1-.2-.1-.3 0-.1 0-.2.1-.3l10-10c.2-.2.4-.2.6 0 .2.2.2.4 0 .6l-9.7 9.7 9.7 9.7c.2.2.2.4 0 .6-.1 0-.2.1-.3.1zm0 0"/></svg><svg viewBox="0 0 32 32" id="back-a" xmlns="http://www.w3.org/2000/svg"><g fill="#E2566A"><path d="M28.3 15.9H3c-.2 0-.4-.2-.4-.4s.2-.4.4-.4h25.3c.2 0 .4.2.4.4 0 .3-.2.4-.4.4zm0 0"/><path d="M13 26c-.1 0-.2 0-.3-.1l-10-10c-.1-.1-.1-.2-.1-.3 0-.1 0-.2.1-.3l10-10c.2-.2.4-.2.6 0 .2.2.2.4 0 .6l-9.7 9.7 9.7 9.7c.2.2.2.4 0 .6-.1 0-.2.1-.3.1zm0 0"/></g></svg><svg viewBox="651.6 9.4 76.5 59.9" id="mail" xmlns="http://www.w3.org/2000/svg"><g fill="#E2566A"><path d="M659.3 27.8c.9.6 27.8 19.1 28.6 19.4.8.3 1.5.4 2.2.4.6 0 1.4-.1 2.2-.4.8-.3 17.9-11.9 28.6-19.4 2.2-1.4 3.8-3.2 5.3-5.3 1.4-2.1 2.1-4.2 2.1-6.4 0-1.9-.6-3.5-1.9-4.6-1.3-1.4-2.9-2.1-4.7-2.1H659c-2.2 0-3.8.6-5 2.2-1.2 1.4-1.8 3.3-1.8 5.5 0 1.8.8 3.7 2.3 5.8 1.3 2 3 3.7 4.8 4.9z"/><path d="M694.6 51.9c-1.8.6-3.3 1-4.7 1-1.5 0-3.1-.4-4.7-1-1.7-.6-32.2-21.9-33.5-23.3v33.8c0 1.9.8 3.6 2.1 4.9 1.4 1.4 2.9 2.1 4.9 2.1h62.7c1.9 0 3.6-.8 4.9-2.1 1.4-1.4 2.1-2.9 2.1-4.9V28.5c-1.5 1.4-32.2 22.7-33.8 23.4z"/></g></svg><svg viewBox="0 0 8 12" id="map" xmlns="http://www.w3.org/2000/svg"><path fill="#E2566A" d="M8 4c0 .6-.1 1-.3 1.4l-2.8 6c-.1.2-.2.3-.4.4s-.3.2-.5.2-.4 0-.5-.1-.3-.2-.4-.4l-2.9-6C.1 5 0 4.6 0 4c0-1.1.4-2 1.2-2.8S2.9 0 4 0c1.1 0 2 .4 2.8 1.2S8 2.9 8 4zM5.4 5.4C5.8 5 6 4.6 6 4c0-.6-.2-1-.6-1.4S4.6 2 4 2s-1 .2-1.4.6S2 3.4 2 4c0 .6.2 1 .6 1.4S3.4 6 4 6s1-.2 1.4-.6z"/></svg><svg viewBox="0 0 32 32" id="next" xmlns="http://www.w3.org/2000/svg"><path d="M3 15.1h25.3c.2 0 .4.2.4.4s-.2.4-.4.4H3c-.2 0-.4-.2-.4-.4s.1-.4.4-.4zm0 0"/><path d="M18.2 5.1c.1 0 .2 0 .3.1l10 10c.1.1.1.2.1.3 0 .1 0 .2-.1.3l-10 10c-.2.2-.4.2-.6 0-.2-.2-.2-.4 0-.6l9.7-9.7L18 5.8c-.2-.2-.2-.4 0-.6 0-.1.1-.1.2-.1zm0 0"/></svg><svg viewBox="0 0 32 32" id="next-a" xmlns="http://www.w3.org/2000/svg"><g fill="#E2566A"><path d="M3 15.1h25.3c.2 0 .4.2.4.4s-.2.4-.4.4H3c-.2 0-.4-.2-.4-.4s.1-.4.4-.4zm0 0"/><path d="M18.2 5.1c.1 0 .2 0 .3.1l10 10c.1.1.1.2.1.3 0 .1 0 .2-.1.3l-10 10c-.2.2-.4.2-.6 0-.2-.2-.2-.4 0-.6l9.7-9.7L18 5.8c-.2-.2-.2-.4 0-.6 0-.1.1-.1.2-.1zm0 0"/></g></svg><svg viewBox="211 -181.8 32 32" id="next-plain" xmlns="http://www.w3.org/2000/svg"><path d="M235.5-164.2l-13.8 13.8c-.9.9-2.3.9-3.2 0-.9-.9-.9-2.3 0-3.2l12.2-12.2-12.2-12.2c-.9-.9-.9-2.3 0-3.2.9-.9 2.3-.9 3.2 0l13.8 13.8c.4.4.7 1 .7 1.6s-.3 1.1-.7 1.6z"/></svg><svg viewBox="-367 7 48 48" id="play" xmlns="http://www.w3.org/2000/svg"><path fill="#FFF" d="M-367 51.6c0 1.9 1.6 3.4 3.4 3.4 1.2 0 2.3-.8 3.4-1.3l38.6-19.3c.9-.5 2.5-1.4 2.5-3.4s-1.6-3-2.5-3.4l-38.6-19.3c-1.1-.5-2.3-1.3-3.4-1.3-1.8 0-3.4 1.6-3.4 3.4v41.2z"/></svg><svg viewBox="211 -181.8 32 32" id="prev-plain" xmlns="http://www.w3.org/2000/svg"><path d="M218.5-167.4l13.8-13.8c.9-.9 2.3-.9 3.2 0 .9.9.9 2.3 0 3.2l-12.2 12.2 12.2 12.2c.9.9.9 2.3 0 3.2-.9.9-2.3.9-3.2 0l-13.8-13.8c-.4-.4-.7-1-.7-1.6s.3-1.1.7-1.6z"/></svg><svg viewBox="0 0 11 11" id="tel" xmlns="http://www.w3.org/2000/svg"><path fill="#E2566A" d="M11 8.7c0 .1 0 .3-.1.6-.1.2-.1.4-.2.5-.1.3-.4.5-1 .8-.5.3-1 .4-1.5.4h-.4c-.1 0-.3-.1-.4-.1-.2 0-.3-.1-.4-.1-.1 0-.2-.1-.4-.2s-.3-.1-.4-.1c-.5-.2-1-.4-1.4-.6-.7-.4-1.4-1-2.1-1.7S1.6 6.7 1.2 6.1C.9 5.7.7 5.2.5 4.7c0 0-.1-.2-.1-.4-.1-.2-.1-.3-.2-.4 0-.1-.1-.2-.1-.4S0 3.2 0 3.1v-.4c0-.5.1-1 .4-1.5.3-.5.6-.8.8-1 .1-.1.3-.1.5-.2h.8c.1 0 .2.2.4.6 0 .1.1.3.2.4.1.2.2.3.3.5.1.2.2.3.2.5 0 0 .1.1.1.2.1.1.1.2.2.3.1 0 .1.1.1.1 0 .2-.1.3-.2.4l-.5.5c-.2.1-.3.2-.5.4-.1.1-.2.2-.2.3v.2c0 .1 0 .1.1.2 0 0 .1.1.1.2l.1.1c.4.7.8 1.3 1.4 1.8.5.5 1.1 1 1.8 1.4 0 0 .1 0 .1.1.1.1.2.1.2.1s.1 0 .2.1h.2c.1 0 .2-.1.4-.2.1-.2.2-.3.3-.5l.5-.5c.1-.1.2-.2.4-.2.1 0 .1 0 .2.1.1 0 .2.1.3.2.1 0 .1 0 .1.1.1.1.3.2.4.2l.6.3c.2.1.3.2.4.2.4.2.6.3.6.4v.2z"/></svg><svg viewBox="0 0 12 12" id="time" xmlns="http://www.w3.org/2000/svg"><path fill="#E2566A" d="M11.2 3c.5.9.8 1.9.8 3s-.3 2.1-.8 3c-.5.9-1.3 1.6-2.2 2.2-.9.5-1.9.8-3 .8s-2.1-.3-3-.8C2.1 10.7 1.3 9.9.8 9 .3 8.1 0 7.1 0 6s.3-2.1.8-3C1.3 2.1 2.1 1.3 3 .8 3.9.3 4.9 0 6 0s2.1.3 3 .8c.9.5 1.7 1.3 2.2 2.2zM9.7 8.1c.4-.7.6-1.4.6-2.1 0-.8-.2-1.5-.6-2.1-.4-.7-.9-1.2-1.6-1.6-.6-.4-1.3-.5-2.1-.5s-1.5.2-2.1.6c-.7.3-1.2.8-1.6 1.5-.4.6-.5 1.3-.5 2.1s.2 1.5.6 2.1c.4.7.9 1.2 1.5 1.5.7.4 1.4.6 2.1.6.8 0 1.5-.2 2.1-.6.7-.3 1.2-.8 1.6-1.5zM7 3.3v3.5c0 .1 0 .1-.1.2s-.1 0-.2 0H4.2s-.1 0-.1-.1-.1-.1-.1-.1v-.5c0-.1 0-.1.1-.2l.1-.1H6V3.3c0-.1 0-.1.1-.2l.1-.1h.5c.1 0 .1 0 .2.1s.1.1.1.2z"/></svg></svg>