<?xml version="1.0" encoding="utf-8"?><svg xmlns="http://www.w3.org/2000/svg" xmlns:xlink="http://www.w3.org/1999/xlink"><symbol viewBox="0 0 96 96" id="baycard" xmlns="http://www.w3.org/2000/svg"><path fill="#010101" d="M78.6 35.8h-7.2V25.6c0-3.3-2.7-5.9-5.9-5.9h-46c-3.3 0-5.9 2.7-5.9 5.9v26.6c0 3.3 2.7 5.9 5.9 5.9h7.2v10.2c0 3.3 2.7 5.9 5.9 5.9h46c3.3 0 5.9-2.7 5.9-5.9V41.8c0-3.3-2.6-6-5.9-6zm-46 0H16.9v-4.5H68v4.4H32.6zM19.4 23.1h46c1.4 0 2.5 1.1 2.5 2.5V28h-51v-2.4c0-1.4 1.1-2.5 2.5-2.5zm0 31.7c-1.4 0-2.5-1.1-2.5-2.5v-13h10.3c-.4.8-.6 1.6-.6 2.5v13h-7.2zm61.7 13.6c0 1.4-1.1 2.5-2.5 2.5h-46c-1.4 0-2.5-1.1-2.5-2.5V41.8c0-1.3 1-2.4 2.3-2.5h46.2c1.4 0 2.5 1.1 2.5 2.5v26.6z"/><path fill="#010101" d="M60.7 46.9c-1.9 0-3.7.7-5.1 1.8-1.4-1.2-3.2-1.8-5.1-1.8-4.5 0-8.2 3.7-8.2 8.2s3.7 8.2 8.2 8.2c1.9 0 3.7-.6 5.1-1.8 1.4 1.1 3.2 1.8 5.1 1.8 4.5 0 8.2-3.7 8.2-8.2s-3.7-8.2-8.2-8.2zm-15 8.2c0-2.6 2.1-4.8 4.8-4.8 1.1 0 2.1.4 3 1-.6 1.1-.9 2.4-.9 3.8s.3 2.6.9 3.8c-.8.7-1.9 1-3 1-2.7-.1-4.8-2.2-4.8-4.8zm15 4.7c-2.6 0-4.8-2.1-4.8-4.8 0-2.6 2.1-4.8 4.8-4.8s4.8 2.1 4.8 4.8c0 2.7-2.2 4.8-4.8 4.8z"/></symbol><symbol viewBox="345 10 29.8 40" id="cart" xmlns="http://www.w3.org/2000/svg"><path d="M374.3 50h-28.6c-.2 0-.4-.1-.4-.2-.1-.1-.2-.3-.2-.4l1.3-28.6c0-.4.3-.6.6-.6h25.9c.4 0 .6.3.6.6l1.3 28.6c0 .2-.1.4-.2.4 0 .1-.1.2-.3.2zm-28-1.2h27.4l-1.3-27.5h-24.7l-1.4 27.5z"/><path d="M366.6 23.8c-.4 0-.6-.3-.6-.6v-6c0-3.3-2.7-6-6-6s-6 2.7-6 6v6c0 .4-.3.6-.6.6s-.6-.3-.6-.6v-6c0-3.9 3.2-7.2 7.2-7.2 3.9 0 7.1 3.2 7.1 7.2v6c0 .3-.3.6-.5.6z"/></symbol><symbol viewBox="680.8 8 48.5 64" id="cart-small" xmlns="http://www.w3.org/2000/svg"><path d="M727.4 26.2c0-1.6-1.3-2.9-2.9-2.9h-6.7v-2.5c0-7.1-5.7-12.8-12.6-12.8-7.1 0-12.8 5.7-12.8 12.8v2.5h-6.7c-1.6 0-2.9 1.3-2.9 2.8l-2 43c0 .6.3 1.2.6 1.6.4.8 1.3 1.3 2.3 1.3h42.9c.9 0 1.6-.4 2.1-1 .4-.5.7-1.2.7-2l-2-42.8zm-15.2-2.9h-14v-2.5c0-3.9 3.1-7 7-7s7 3.1 7 7v2.5zm-16.9 9.4c1.6 0 2.9-1.3 2.9-2.9V29h14v.8c0 1.6 1.3 2.9 2.9 2.9 1.4 0 2.8-1.4 2.8-2.9V29h4l1.8 37.3h-36.9l1.9-37.3h3.7v.8c-.1 1.5 1.3 2.9 2.9 2.9z"/></symbol><symbol viewBox="0 0 96 96" id="cash" xmlns="http://www.w3.org/2000/svg"><defs><path id="da" d="M5.5 10.4h84.9v75.2H5.5z"/></defs><clipPath id="db"><use xlink:href="#da" overflow="visible"/></clipPath><path clip-path="url(#db)" d="M37.3 59.9l13.9 4.2c0 .1-.1.2-.1.3-.4 1-1.1 1.6-2.4 1.8-4.6.7-12.1.3-12.2.3-1.2-.1-2.2.8-2.2 2-.1 1.2.8 2.2 2 2.2.3 0 8.1.5 13.1-.3s6.4-5.2 6.2-8c-.1-.9-.7-1.6-1.5-1.8l-15.5-4.7c-7.7-2.3-16.1 2-16.4 2.1 0 0-.1 0-.1.1L6.6 67.4c-1 .6-1.3 1.9-.7 2.9.4.7 1.1 1 1.8 1 .4 0 .7-.1 1.1-.3l15.4-9.3c.6-.3 7.4-3.5 13.1-1.8zm0 0"/><path clip-path="url(#db)" d="M90.2 56.4c-1.2-2.2-5-5.8-10.8-3.2-5.4 2.4-16.9 7.9-17.1 8-1.1.5-1.5 1.8-1 2.8.5 1.1 1.8 1.5 2.8 1 .1-.1 11.5-5.6 16.9-7.9 1.5-.7 2.8-.7 3.9 0 0 0 .1 0 .1.1L56.4 78.1c-2 1.5-4.6 2.1-7.1 1.7l-25.7-4.1c-.6-.1-1.2.1-1.7.5l-6.5 5.4c-.9.7-1 2.1-.3 3 .4.5 1 .8 1.6.8.5 0 1-.2 1.4-.5l5.8-4.8 24.7 4c3.6.6 7.4-.3 10.3-2.5l30.7-22.5c.9-.7 1.1-1.8.6-2.7zm0 0"/><path d="M51 53.9c3.3 0 6.4-1.3 8.7-3.6 4.8-4.8 4.8-12.6 0-17.5-2.3-2.3-5.4-3.6-8.7-3.6-3.3 0-6.4 1.3-8.7 3.6-4.8 4.8-4.8 12.6 0 17.5 2.3 2.3 5.4 3.6 8.7 3.6zm-5.8-18.1c1.5-1.5 3.6-2.4 5.7-2.4 2.2 0 4.2.8 5.7 2.4 3.2 3.2 3.2 8.3 0 11.5-1.5 1.5-3.6 2.4-5.7 2.4-2.2 0-4.2-.8-5.7-2.4-3.1-3.1-3.1-8.3 0-11.5zm0 0M65.5 29.8c2.6 0 5-1 6.8-2.8 3.8-3.8 3.8-9.9 0-13.6-1.8-1.8-4.2-2.8-6.8-2.8-2.6 0-5 1-6.8 2.8-3.8 3.8-3.8 9.9 0 13.6 1.8 1.8 4.2 2.8 6.8 2.8zm-3.9-13.5c1-1 2.4-1.6 3.8-1.6s2.8.6 3.8 1.6c2.1 2.1 2.1 5.5 0 7.6-1 1-2.4 1.6-3.8 1.6s-2.8-.6-3.8-1.6c-2.1-2-2.1-5.5 0-7.6zm0 0"/></symbol><symbol viewBox="0 0 56 56" id="controls" xmlns="http://www.w3.org/2000/svg"><path d="M8 14c3.519 0 6.432-2.614 6.92-6H54a1 1 0 1 0 0-2H14.92C14.432 2.614 11.519 0 8 0 4.14 0 1 3.141 1 7s3.14 7 7 7zM8 2c2.757 0 5 2.243 5 5s-2.243 5-5 5-5-2.243-5-5 2.243-5 5-5zM48 42c-3.519 0-6.432 2.614-6.92 6H2a1 1 0 1 0 0 2h39.08c.488 3.386 3.401 6 6.92 6 3.859 0 7-3.141 7-7s-3.141-7-7-7zm0 12c-2.757 0-5-2.243-5-5s2.243-5 5-5 5 2.243 5 5-2.243 5-5 5zM54 27H35.368c-.396-3.602-3.455-6.414-7.161-6.414-3.706 0-6.765 2.813-7.161 6.414H2a1 1 0 1 0 0 2h19.109c.577 3.4 3.536 6 7.098 6s6.52-2.6 7.097-6H54a1 1 0 1 0 0-2zm-25.793 6C25.336 33 23 30.664 23 27.793s2.336-5.207 5.207-5.207 5.207 2.336 5.207 5.207S31.078 33 28.207 33z"/></symbol><symbol viewBox="0 0 16 16" id="delete" xmlns="http://www.w3.org/2000/svg"><path fill="#231F20" d="M10.3 8l5.2-5.2c.6-.6.6-1.5 0-2.1-.6-.6-1.5-.6-2.1 0L8.1 5.9 2.9.7C2.3.1 1.4.1.8.7c-.6.6-.6 1.5 0 2.1L6 8 .8 13.2c-.6.6-.6 1.5 0 2.1.3.3.7.4 1.1.4s.8-.1 1.1-.4l5.2-5.2 5.2 5.2c.3.3.7.4 1.1.4s.8-.1 1.1-.4c.6-.6.6-1.5 0-2.1L10.3 8z"/></symbol><symbol viewBox="159 349 96 96" id="delivery" xmlns="http://www.w3.org/2000/svg"><path d="M221.872 414.695c.753 3.703 4.035 6.498 7.956 6.498 3.922 0 7.203-2.795 7.957-6.498h8.289c.895 0 1.621-.726 1.621-1.621v-15.732a1.62 1.62 0 0 0-.807-1.402l-4.696-2.727-2.683-11.463a6.684 6.684 0 0 0-6.535-5.182H219.48v-2.141c0-.895-.726-1.621-1.621-1.621h-49.933c-.895 0-1.621.726-1.621 1.621v38.647c0 .895.726 1.621 1.621 1.621h5.211c.753 3.703 4.035 6.498 7.956 6.498 3.922 0 7.203-2.795 7.957-6.498h32.822zm14.48-32.207l2.376 10.154h-9.843V379.81h4.09a3.455 3.455 0 0 1 3.377 2.678zm-66.805-6.44h46.691V399.824h-46.691v-23.776zm0 27.019h46.691v2.571h-14.624a1.621 1.621 0 0 0 0 3.242h14.624v2.571H189.05c-.753-3.703-4.035-6.498-7.957-6.498-3.922 0-7.203 2.795-7.956 6.498h-3.59v-8.384zm11.546 14.884a4.883 4.883 0 0 1-4.877-4.877 4.883 4.883 0 0 1 4.877-4.877 4.883 4.883 0 0 1 4.877 4.877 4.883 4.883 0 0 1-4.877 4.877zm48.736 0a4.883 4.883 0 0 1-4.865-4.552 1.658 1.658 0 0 0 0-.65 4.883 4.883 0 0 1 4.865-4.552 4.883 4.883 0 0 1 4.877 4.877 4.883 4.883 0 0 1-4.877 4.877zM219.48 379.81h6.163v14.453c0 .895.726 1.621 1.621 1.621h13.073l4.116 2.39v.523h-4.706c-.895 0-1.621.726-1.621 1.621v4.959c0 .895.726 1.621 1.621 1.621h4.706v4.452h-6.667c-.753-3.703-4.035-6.498-7.957-6.498s-7.203 2.795-7.956 6.498h-2.392v-31.64zm24.973 23.948h-3.084v-1.716h3.084v1.716z"/><path d="M194.773 408.881h1.368a1.621 1.621 0 0 0 0-3.242h-1.368a1.621 1.621 0 0 0 0 3.242z"/></symbol><symbol viewBox="0 0 310.4 310.4" id="instagram" xmlns="http://www.w3.org/2000/svg"><path d="M0 0v310.4h310.4V0H0zm291.2 291.2h-272v-272h272v272zm0 0"/><path d="M205.1 54.4h-99.9c-28 0-50.8 22.8-50.8 50.8v99.9c0 28 22.8 50.8 50.8 50.8h99.9c28 0 50.8-22.8 50.8-50.8v-99.9c.1-28-22.7-50.8-50.8-50.8zm29 150.8c0 15.9-13 28.9-28.9 28.9h-99.9c-15.9 0-28.9-13-28.9-28.9v-99.9c0-15.9 13-28.9 28.9-28.9h99.9c15.9 0 28.9 13 28.9 28.9v99.9zm0 0"/><path d="M208.8 114c-6.8 0-12.3-5.5-12.3-12.3 0-6.8 5.5-12.3 12.3-12.3 6.8 0 12.3 5.5 12.3 12.3 0 6.8-5.5 12.3-12.3 12.3zm0 0M155.2 103.3c-28.6 0-51.9 23.3-51.9 51.9 0 28.6 23.3 51.9 51.9 51.9s51.9-23.3 51.9-51.9c0-28.6-23.3-51.9-51.9-51.9zm0 81.9c-16.5 0-30-13.5-30-30s13.5-30 30-30 30 13.4 30 30c0 16.5-13.5 30-30 30zm0 0"/></symbol><symbol viewBox="807.8 968.1 160 75.4" id="logo-lav" xmlns="http://www.w3.org/2000/svg"><path d="M832.3 1014.9h24.2c.6 0 1.2-.1 1.7-.4.4-.4.7-.9.7-1.4h.9v7.2h-.9c-.1-.5-.3-1-.7-1.4-.5-.3-1.1-.4-1.7-.4h-30.4v-.9c.5-.1 1.1-.4 1.4-.8.3-.5.4-1.1.4-1.6v-31.4c0-.6-.1-1.1-.4-1.6-.4-.4-.9-.7-1.4-.7v-.9h7.9v.9c-.5.1-1 .4-1.4.7-.3.5-.4 1.1-.3 1.6v31.1zM896.2 1011h-14l-2 4.5c-.2.4-.3.8-.4 1.3 0 .5.4.9 1.2 1.1v.6h-6.6v-.6c.6-.1 1.1-.3 1.5-.8.5-.7 1-1.4 1.3-2.2l8.9-19.2c.4-.7.6-1.4.7-2.2 0-.6-.4-.9-1.2-1v-.7h7.8v.6c-.8.2-1.2.5-1.2 1 .2.9.5 1.7 1 2.5l8.5 18.5c.4.9.9 1.8 1.5 2.5.4.5 1 .8 1.6.8v.6h-7v-.6c.7-.2 1.1-.4 1.1-.8-.1-.5-.3-1.1-.6-1.6l-2.1-4.3zm-1.1-2.6l-5.8-13.1-5.9 13.1h11.7zM921 1006.1zM935.1 999.6zM922.9 1010.3zM923.2 1010.9zM930.6 1010l.2-.1c-.3.1-.5.2-.8.3l-.2.1c.2-.1.5-.2.8-.3zM932.1 1002.8zM938.8 981l.2-.1-.2.1zM919.1 1001.6v-.3.3zM917.9 998.9s0-.1.1-.2l-.1.2zM937.1 981.5c.4-.1.7-.3 1-.4-.3.2-.6.3-1 .4zM929.3 1010.5c.1-.1.2-.1.4-.2l-.3.1-.1.1zM920.8 1005.1l-.2-.2.2.2z"/><path d="M937.1 981.5c1.1-.5 2.3-.8 3.4-.9h.2c-1.2.1-2.5.4-3.6.9zM929.6 1009.8l1.5-.6-.2.1c-.4.2-.9.3-1.3.5zM933.1 1002.5l.3-.2-.3.2zM933.6 1002.3l.4-.2-.4.2zM932.6 1002.9l.2-.1-.2.1zM929.8 1010.3l.2-.1-.2.1zM929.5 1010.4zM939.7 980.7z"/><path d="M939 980.9l-.2.1h-.1l.3-.1zM930.7 1010c-.3.1-.5.2-.8.3.3-.2.6-.3.8-.3zM929.7 1010.3l-.3.1.3-.1zM929.2 1010.1l.2-.1-.2.1zM929.5 1009.9l1.5-.6c-.4.1-.9.3-1.5.6zM929.8 1010.3z"/><path d="M929.3 1010l-.2.1.2.4.1-.1.3-.1.2-.1c.3-.1.5-.2.8-.3l.4-.8-1.5.6-.3.3zM938.1 981.2c-.3.1-.7.2-1 .4.4-.2.7-.3 1-.4zM927.8 994.3l.3-.1-.3.1zM927.4 994.5c-1.5.5-3 .8-4.4 1.4 1.4-.6 3-.9 4.4-1.4zM922.4 994.5zM922.5 994.5c.4-.2.8-.3 1.2-.4-.4.1-.8.2-1.2.4z"/><path d="M922.4 994.5c.4-.1.8-.3 1.2-.4.6-.1 1.2-.2 1.7-.4 2.3-.4 4.4-.8 5.3-3.4.2-.7.4-1.3.6-2 .3-1.5.9-2.9 1.8-4.2 1.1-1.3 2.5-2.2 4-2.7 1.2-.5 2.4-.8 3.7-1-1.2-.2-3.2.5-4.1.8h-.1c-1.4.5-2.7 1.3-3.6 2.5-1.1 1.3-1.4 2.7-1.7 4.1-.1.7-.3 1.4-.5 2.1-.6 1.9-1.8 2.3-3.7 2.7l-.7.2-1.3.3c-.9.2-1.8.5-2.7.9l.1.5zM918 998.8c0 .1-.1.1-.1.2l.1-.2zM921.2 1006.1h-.2l.1.3h.1v-.3zM920.5 1004.9l.2.2-.2-.2zM920.5 1004.9zM919.1 1001.2v0zM918.5 1004.7l-.3-.3c.1 0 .2.2.3.3zM919.1 1001.7c0 .3 0 .6.1 1v.1c-.1-.4-.1-.8-.1-1.1zM920.5 1004.9l-.4-.4.1.1.3.3zM919.5 1003.6l.1.2.1.2c.1.1.2.3.3.4-.1-.2-.3-.5-.5-.8zM919.3 1003.2c0 .1.1.2.1.2v.1c0-.1 0-.2-.1-.3zM919.6 1003.8zM919.5 1003.5zM919.8 1004z"/><path d="M919.4 1003.4c0-.1-.1-.2-.1-.2.1 0 .1.1.1.2zM919 1001.5c0 .4 0 .7.1 1 0-.2 0-.6-.1-1zM919.8 1004l-.1-.2.1.2zM920.1 1004.4c-.1-.1-.2-.3-.3-.4.1.2.3.4.5.6l-.2-.2zM919.2 1002.6v0zM919.5 1003.6zM920.3 1004.6l.2.2-.2-.2zM919.5 1003.5zM918.7 1005c.6.6 1.5 1 2.3 1-.8 0-1.7-.4-2.3-1zM917.1 1002.6c0-.2-.1-.4-.1-.6 0 .2.1.4.1.6zM918.7 1005l-.3-.3.3.3zM916.9 1001.4s0 .1 0 0zM917.9 998.9c0 .1-.1.2-.1.3l-.3.9c.1-.4.2-.8.4-1.2zM917.5 1000.1l.3-.9-.3.9zM920.1 1006.3h.2-.2zM916.9 1001.5z"/><path d="M917.9 998.9c0 .1-.1.2-.1.3 0-.1.1-.2.1-.3zM916.9 1001v0zM917 1002c0 .2.1.4.1.6-.1-.3-.1-.6-.1-.8v.2zM922.1 1011.3zM922.3 1011.9c-.1-.1-.1-.2-.2-.3.1.1.2.2.2.3zM922.6 1012.1zM922.2 1011.6v-.2c-.1 0-.1.1 0 .2zM922.2 1011.1c0-.1 0-.1 0 0zM922.8 1012.2zM922.9 1010.3zM923.2 1010.9zM922.3 1010.9zM922.5 1010.7zM922.6 1010.5zM923 1011z"/><path d="M922.9 1010.3l-.2.1h-.1l-.1.1-.1.1-.1.1-.1.1-.1.1V1011.6c0 .1.1.2.2.3l.2.2h.1l.1.1h.4c.2-.1.4-.3.4-.5l-.2-.5c-.2-.1-.4-.1-.6-.1H923l.1-.1-.2-.7zM934.4 999.1c0-.1-.1-.2-.1-.3 0 .1 0 .2.1.3zM935.1 999.6zM934.6 999.3c-.1 0 0 0 0 0zM939.3 986.5zM939.3 986.5zM939.5 986.6zM939.2 986.3l-.3-.3c0 .1.1.2.3.3zM940.5 980.5zM923.3 1011.2l.2.5c0-.2-.1-.4-.2-.5zM933.7 1003.1l.5-1.1-.2.1-.4.2-.2.1-.3.2-.3.2-.2.1c-.2.1-.3.3-.4.4-.9 1.1-.5 2.6-1.4 3.7.9-.7 1.1-2.1 1.9-3 .3-.3.7-.6 1-.9zM932.8 1002.7l.3-.2c-.1.1-.2.2-.3.2zM934.2 1002l-.2.1.2-.1zM933.4 1002.4l.2-.1-.2.1z"/><path d="M932.2 1003.3l.4-.4c-.2.1-.3.2-.4.4zM919.5 1003.6c.2.3.3.6.5.8.1.1.2.3.4.4l.2.2-1.7-3.8v.4c0 .4 0 .7.1 1.1 0 .1.1.3.1.4 0 .1.1.2.2.4l.2.1z"/><path d="M919.2 1002.8c0 .1.1.3.1.4 0-.2-.1-.3-.1-.4zM919.5 1003.5z"/><path d="M919.3 1003.2c0-.1-.1-.2-.1-.4 0 .1.1.2.1.4zM929.2 1010.1l.3-.2h.2c.4-.2.8-.4 1.3-.5l.2-.1.9-2c-.2.4-.5.8-.8 1.1-.6.6-1.3 1-2.1 1.3v.4zM929.5 1009.9zM929.6 1009.8zM929.5 1009.9l-.3.2.3-.2zM929.5 1009.9l-.2.1.2-.1z"/><path d="M920.1 1006.3c-1.9-.5-2.7-2.3-3-3.6 0-.2-.1-.4-.1-.6v-.3-.3-.1-.6-.4c0-.1 0-.3.1-.5s0-.3.1-.4c0-.1 0-.2.1-.3l.3-.9v-.1c0-.1.1-.2.1-.3l-.1.2c-.7 1.4-.9 3.1-.5 4.6.4 1.3 1.2 3.1 3 3.6.4.1.8.2 1.1.2h.1v-.1c-.3 0-.7 0-1.2-.1z"/><path d="M917 999.9c0-.1 0-.3.1-.4-.1.1-.1.3-.1.4zM920.3 1006.3h-.2c.4.1.8.1 1.2.1-.3 0-.6 0-1-.1zM917.6 997.9c0 .1-.1.2-.1.3 0-.1.1-.1.1-.3zM917.1 999.2l.3-.9-.3.9zM916.9 1001.5v0zM916.9 1000.4v0zM916.9 1000.8v0c0 .1 0 .1 0 0zM917.5 998.3zM917 1001.8v0zM917.1 999.5c0-.1 0-.2.1-.3-.1.1-.1.2-.1.3zM916.9 1000.4c0-.2 0-.3.1-.5 0 .2 0 .4-.1.5zM921.1 1006.4h-.8c.3.1.6.1 1 .1l-.2-.1zM917 1001.5v0zM929.7 1010.4c.3-.1.6-.2 1-.3v-.1l-.2.1c-.2 0-.5.1-.8.3-.2 0-.3 0-.4.1v.1l.4-.2zM929.8 1010.3z"/><path d="M929.7 1010.4c.3-.1.5-.2.8-.3l.2-.1c-.3.2-.6.3-1 .4zM929.4 1010.6c.1-.1.2-.1.3-.2l-.3.2zM921.1 1006.1c-.8-.1-1.7-.5-2.3-1.1l-.3-.3-.3-.3c-.7-1.3-1-2.8-.6-4.2l.3-.9c0-.1.1-.3.2-.4v-.1c0 .1 0 .1-.1.2-.2.4-.3.7-.4 1.1-.4 1.5-.1 3 .6 4.3.1.1.2.2.3.4l.3.3c.6.5 1.4.9 2.3 1zM918 998.8c-.1.1-.1.3-.2.4.1-.1.2-.2.2-.4zM918.4 1004.7z"/><path d="M917.6 1000.1l.3-.9c-.2.3-.2.6-.3.9zM918.7 1005c.6.6 1.5 1 2.4 1h-.1c-.9-.1-1.6-.4-2.3-1zM918.7 1004.9l-.3-.3c.1.2.2.3.3.3z"/><path d="M918 998.9c-.1.1-.1.3-.2.4l-.3.9c.1-.4.2-.7.4-1 .1-.2.1-.3.1-.3zM923.2 1010.9l-.2.1h-.2c1.1-.1.9.9.4 1.1h-.5l-.1-.1h-.1l-.2-.2c-.1-.1-.1-.2-.2-.3v-.1-.6l.1-.1.1-.1.1-.1.1-.1.1-.1h.1l.2-.1h.1l-.3-.7h-.1c-.8.3-1.5.7-1.5 1.6 0 1.2 1.8 2.2 3 1.8h.1l-1-2z"/><path d="M923 1011h-.2c0 .1.1.1.2 0zM923 1012.2zM923.2 1010.9zM922.1 1011.2c0-.1 0-.1 0 0 0-.1 0-.1 0 0zM922.1 1011.4s0-.1 0 0c0-.1 0 0 0 0zM922.9 1012.2zM922.4 1010.8zM922.5 1010.6zM922.7 1010.4l.2-.1-.2.1zM922.2 1011.6zM922.7 1012.2zM922.5 1012.1l-.2-.2.2.2zM922.2 1011zM921.6 1007.5c-.6 0-1.3.1-1.8.5-.3.2-1.6 1.5-1.5 1.8v.1c.9-1.6 2.3-1.7 3.7-1.5h.2l-.4-.8-.2-.1zM924.9 993.2l1.3-.3.7-.2c1.9-.5 3-.9 3.7-2.7.2-.7.4-1.4.5-2.1.3-1.5.6-2.9 1.7-4.1 1-1.1 2.2-2 3.6-2.5h.1c.9-.3 2.9-1 4.1-.8v-.1c-1.2-.2-3.2.4-4.2.8h-.1c-1.4.5-2.7 1.3-3.6 2.5-1.1 1.3-1.4 2.7-1.7 4.2-.1.7-.3 1.4-.5 2.1-.6 1.9-1.7 2.2-3.6 2.7l-.7.2c-1.3.3-2.6.7-3.9 1.2v.1c.8-.5 1.6-.7 2.6-1z"/><path d="M940.5 980.6c-1.2.1-2.3.4-3.4.9-1.6.5-3 1.5-4 2.7-.9 1.2-1.5 2.7-1.8 4.2-.2.6-.4 1.3-.6 2-.9 2.6-2.9 3-5.3 3.4-.6.1-1.1.2-1.7.4-.4.1-.8.2-1.2.4v.1c.4-.1.8-.3 1.2-.4.6-.1 1.2-.2 1.7-.4 2.3-.4 4.4-.8 5.3-3.4.2-.7.4-1.3.6-2 .3-1.5.9-2.9 1.8-4.2 1.1-1.3 2.4-2.2 4-2.7.4-.1.7-.3 1-.4h.1c.2-.1.4-.1.6-.2l.2-.1h.2c.5-.1 1-.2 1.5-.2v-.1h-.2zM939.1 980.9z"/><path d="M938.8 981c-.2.1-.4.1-.6.2l.6-.2zM939.7 980.7c.4-.1.7-.1 1-.1-.5 0-1 .1-1.5.2.2 0 .4 0 .5-.1zM922.5 994.6zM924.9 993.2l1.3-.3-1.3.3zM938.2 981.1zM939.1 980.9zM938.7 981l-.5.1h-.1l.6-.1z"/><path d="M939.7 980.7c-.2 0-.3.1-.5.1h-.2c.3 0 .5 0 .7-.1zM939.8 980.7c.2 0 .5-.1.7-.1h.2c-.3 0-.6.1-.9.1zM923.7 997.6c1-.6 2.2-1 3.4-1.2 1.5-.3 3.2-.4 4.1-1.8-.7 1.9-2.7 2-4.2 2.5-1 .3-2 .7-2.9 1.3l1 2.4c1.1-1.6 3.9-2.5 5.5-2.4-1.3.2-3.6 1.5-4.3 2.6-.6 1-.1 2 .2 3l1.3 2.9c.4-1 .3-2.2 1-3.2 1.1-1.6 3-2.3 4.8-2.7-1.3.5-2.5 1.3-3.5 2.4-.9 1.1-.7 1.9-1 3.3-.1.5-.3 1-.7 1.4l.4.9c.6-.4 1.1-.9 1.5-1.5.7-1.3.5-2.9 1.6-4.1.1-.2.3-.3.5-.4h.1l.6-.3c.5-.2 1-.4 1.5-.5l1-2.2h-.1c-.2 0-.4-.1-.5-.3v-.1c0-.1-.1-.1-.1-.2s-.1-.2-.1-.3c0-.6.4-1.1-.3-1.4-.5-.2-.7-.8.1-1-.4.1-.8-.1-.9-.5-.1-.6.6-.6.3-1.2-.2-.4-1-.4-.9-1 0-.5.5-1 .8-1.3.4-.5.7-1.2.9-1.8 0-.6 0-1.2-.2-1.7-.1-.9 0-1.7.4-2.5.3-.5.7-1 1.1-1.4.9-.8 2-1.4 3.1-1.9-1.2.6-.4 2.3.2 3l.4.4.1.1c.1.1.3.2.4.3l.5.3.1.1.3.2 1-2.2c.4-.7.6-1.5.7-2.3 0-.1 0-.5-1.1-.8l-.5-.1v-1.3h-.3c-2.9.5-5.6 2.1-7.3 4.5-1.9 2.7-.9 7-4.3 8.7-.2.1-.5.2-.7.3l-.3.1-.4.1c-1.5.5-3 .9-4.4 1.5l.1 1.3zM940.6 987.4l-.3-.2.3.2zM939.7 986.8l.5.3-.5-.3zM939.3 986.5zM927.4 994.5l.4-.1-.4.1z"/><path d="M928.1 994.2c.2-.1.5-.2.7-.3-.2.1-.5.2-.7.3zM934.3 1001.9c-.5.1-1 .3-1.5.5.4-.2.9-.4 1.3-.5h.2zM932.2 1002.8l.6-.3c-.2 0-.4.1-.6.3zM931.7 1003.2c.1-.2.3-.3.5-.4-.2.1-.4.3-.5.4zM939.7 986.8c-.1-.1-.3-.2-.4-.3l.1.1.3.2zM939.2 986.4l-.4-.4.4.4zM940.2 987.1zM934.5 999.3c-.1-.1-.1-.1-.1-.2 0 0 .1.1.1.2z"/><path d="M940.5 987.3l-.2-.1-.1-.1-.5-.3-.2-.2c.3.3.7.5 1 .7zM935.1 999.6zM939.3 986.4z"/><path d="M950 980.5v.9c-.7.1-1.3.5-1.8 1-.7 1.2-1.3 2.4-1.8 3.7l-12.3 27.7c-.4.7-.6 1.5-.7 2.4 0 .8.5 1.3 1.6 1.5v.9h-10.6v-.9c1-.2 1.5-.7 1.6-1.5v-.1c0-.1 0-.3-.1-.4-.2-.6-.4-1.3-.7-1.9l-3.3-7.5-.1-.3v-.1l-.2-.4-2.5-5.7-.8-1.9v-.1l-.3-.7-5.2-11.9c-.4-1-.9-2-1.5-2.9-.5-.5-1.1-.8-1.8-1v-.9h9.1v.9c-1.1.3-1.6.7-1.6 1.4.1.9.3 1.8.7 2.6l3.9 8.9.2.4v.1l.6 1.3.8 1.8.4.8 1.2 2.7 1.8 4.2.8 1.8.4.9.4.9.3.7.3.6.2.4v.1l.9 2.1.2.6 1.7-3.9.5-1.1 4-9 5.1-11.7 1.1-2.4c.4-.8.7-1.7.8-2.6 0-.7-.5-1.2-1.6-1.4v-.9l8.3-.1zM939.6 995.9zM928.4 1011.2zM921.4 995z"/><g><path d="M967.8 1032.1H807.9l-.1-64h160v64zm-159-1h158v-62h-158v62z"/></g><g><path d="M813.1 1043.1h-.7v-7.5h-3.6v7.5h-.7v-8.1h5v8.1zM815.6 1039.8v3.4h-.7v-8.1h2.4c.7 0 1.3.2 1.6.6.4.4.6 1 .6 1.7s-.2 1.3-.6 1.7c-.4.4-.9.6-1.6.6l-1.7.1zm0-.6h1.7c.5 0 .9-.2 1.2-.5.3-.3.4-.8.4-1.3s-.1-.9-.4-1.3c-.3-.3-.6-.5-1.2-.5h-1.7v3.6zM825.6 1040.2c0 1-.2 1.7-.7 2.2s-1.1.8-1.9.8-1.4-.3-1.8-.8c-.4-.5-.7-1.3-.7-2.2v-2.3c0-1 .2-1.7.7-2.3.4-.5 1.1-.8 1.8-.8.8 0 1.4.3 1.9.8s.7 1.3.7 2.3v2.3zm-.6-2.3c0-.8-.2-1.4-.5-1.8s-.8-.6-1.4-.6c-.6 0-1.1.2-1.4.6-.3.4-.5 1-.5 1.8v2.3c0 .8.2 1.4.5 1.8s.8.6 1.4.6c.6 0 1.1-.2 1.4-.6.3-.4.5-1 .5-1.8v-2.3zM830.2 1035.9h.1c.8 0 1.5.3 2 .9.5.6.8 1.4.8 2.3 0 .9-.3 1.7-.8 2.3s-1.2.9-2 .9h-.1v1.2h-.7v-1.2h-.1c-.8 0-1.5-.3-2-.9s-.8-1.4-.8-2.3.3-1.7.8-2.3 1.2-.9 2-.9h.1v-1.2h.7v1.2zm-.8.5c-.6 0-1.2.2-1.5.7-.4.5-.6 1.1-.6 1.9s.2 1.4.6 1.9c.4.5.9.7 1.5.7h.1v-5.3l-.1.1zm.8 0v5.3h.1c.6 0 1.2-.2 1.5-.7.4-.5.6-1.1.6-1.9s-.2-1.4-.6-1.9c-.4-.5-.9-.7-1.5-.7l-.1-.1zM838.2 1039.2H835v3.3h3.6v.6h-4.3v-8.1h4.3v.6H835v3h3.2v.6zM844.3 1040.8c0 .8-.2 1.4-.6 1.8-.4.4-1 .6-1.7.6s-1.3-.3-1.8-.8-.7-1.3-.7-2.3v-2.2c0-1 .2-1.7.7-2.2.4-.5 1-.8 1.8-.8.7 0 1.3.2 1.7.6s.6 1 .6 1.8h-.6c0-.6-.2-1.1-.4-1.4-.3-.3-.7-.5-1.2-.5-.6 0-1 .2-1.3.6-.3.4-.5 1-.5 1.8v2.3c0 .8.2 1.4.5 1.8s.7.6 1.3.6c.5 0 1-.1 1.2-.5.3-.3.4-.8.4-1.4l.6.2zM850.2 1040.8c0 .8-.2 1.4-.6 1.8-.4.4-1 .6-1.7.6s-1.3-.3-1.8-.8c-.4-.5-.7-1.3-.7-2.3v-2.2c0-1 .2-1.7.7-2.2.4-.5 1-.8 1.8-.8.7 0 1.3.2 1.7.6.4.4.6 1 .6 1.8h-.6c0-.6-.2-1.1-.4-1.4-.3-.3-.7-.5-1.2-.5-.6 0-1 .2-1.3.6-.3.4-.5 1-.5 1.8v2.3c0 .8.2 1.4.5 1.8s.7.6 1.3.6c.5 0 1-.1 1.2-.5.3-.3.4-.8.4-1.4l.6.2zM856 1035h.7v8.1h-.7v-6.7l-3.6 6.7h-.7v-8.1h.7v6.7l3.6-6.7zM863.3 1040.2c0 1-.2 1.7-.7 2.2s-1.1.8-1.9.8-1.4-.3-1.8-.8-.7-1.3-.7-2.2v-2.3c0-1 .2-1.7.7-2.3.4-.5 1.1-.8 1.8-.8.8 0 1.4.3 1.9.8s.7 1.3.7 2.3v2.3zm-.7-2.3c0-.8-.2-1.4-.5-1.8s-.8-.6-1.4-.6-1.1.2-1.4.6c-.3.4-.5 1-.5 1.8v2.3c0 .8.2 1.4.5 1.8s.8.6 1.4.6c.6 0 1.1-.2 1.4-.6.3-.4.5-1 .5-1.8v-2.3zM869.7 1043.1h-.7v-3.7h-3.6v3.7h-.7v-8.1h.7v3.8h3.6v-3.8h.7v8.1zM875.2 1040.9h-3l-.7 2.2h-.7l2.6-8.1h.6l2.5 8.1h-.7l-.6-2.2zm-2.7-.6h2.6l-1.3-4.2-1.3 4.2zM882.7 1035v8.1h-.7v-7.5h-2.7l-.1 3.1c0 1.6-.2 2.7-.5 3.4-.3.7-.8 1-1.5 1h-.2v-.6h.2c.4 0 .8-.3 1-.8s.3-1.6.3-3l.1-3.7h4.1zM885.2 1038.5h1.7c.7 0 1.3.2 1.7.6s.6 1 .6 1.7-.2 1.3-.6 1.7c-.4.4-.9.6-1.6.6h-2.3v-8.1h.7v3.5h-.2zm0 .6v3.4h1.7c.5 0 .9-.2 1.2-.5.3-.3.4-.7.4-1.2s-.1-.9-.4-1.2c-.3-.3-.6-.5-1.2-.5h-1.7zM895.4 1043.1h-.6v-3.7h-3.6v3.7h-.7v-8.1h.7v3.8h3.6v-3.8h.7l-.1 8.1zM901 1040.9h-3l-.7 2.2h-.7l2.6-8.1h.6l2.5 8.1h-.7l-.6-2.2zm-2.8-.6h2.6l-1.3-4.2-1.3 4.2zM903.8 1043.1h-.7l1.6-3.5c-.4-.2-.8-.5-1-.8-.2-.4-.4-.8-.4-1.3 0-.8.2-1.4.6-1.8.4-.4 1-.6 1.7-.6h2.1v8.1h-.7v-3.4h-1.8l-1.4 3.3zm3.2-7.5h-1.4c-.5 0-.9.2-1.2.5-.3.3-.4.8-.4 1.3s.1 1 .4 1.3c.3.3.6.5 1.1.5h1.5v-3.6zM913.3 1039.3h-.9v3.8h-.6v-8.1h.7v3.7h.8l2.6-3.7h.8l-2.8 4 3 4.1h-.8l-2.8-3.8zM922.5 1040.2c0 1-.2 1.7-.7 2.2s-1.1.8-1.9.8-1.4-.3-1.8-.8c-.4-.5-.7-1.3-.7-2.2v-2.3c0-1 .2-1.7.7-2.3.4-.5 1.1-.8 1.8-.8.8 0 1.4.3 1.9.8s.7 1.3.7 2.3v2.3zm-.6-2.3c0-.8-.2-1.4-.5-1.8s-.8-.6-1.4-.6c-.6 0-1.1.2-1.4.6-.3.4-.5 1-.5 1.8v2.3c0 .8.2 1.4.5 1.8.3.4.8.6 1.4.6.6 0 1.1-.2 1.4-.6.3-.4.5-1 .5-1.8v-2.3zM928.4 1040.8c0 .8-.2 1.4-.6 1.8-.4.4-1 .6-1.7.6s-1.3-.3-1.8-.8-.7-1.3-.7-2.3v-2.2c0-1 .2-1.7.7-2.2.4-.5 1-.8 1.8-.8.7 0 1.3.2 1.7.6s.6 1 .6 1.8h-.6c0-.6-.2-1.1-.4-1.4-.3-.3-.7-.5-1.2-.5-.6 0-1 .2-1.3.6-.3.4-.5 1-.5 1.8v2.3c0 .8.2 1.4.5 1.8.3.4.7.6 1.3.6.5 0 1-.1 1.2-.5.3-.3.4-.8.4-1.4l.6.2zM930.7 1035l2.3 7.1 2.3-7.1h.9v8.1h-.7v-3.6l.1-3.3-2.3 6.9h-.5l-2.3-6.8.1 3.3v3.6h-.7v-8.1l.8-.1zM941.8 1039.2h-3.2v3.3h3.6v.6h-4.3v-8.1h4.3v.6h-3.6v3h3.2v.6zM948.1 1035.6h-2.3v7.5h-.7v-7.5h-2.3v-.6h5.2l.1.6zM953.6 1035h.7v8.1h-.7v-6.7l-3.6 6.7h-.7v-8.1h.7v6.7l3.6-6.7zM957.6 1039.3h-.9v3.8h-.7v-8.1h.7v3.7h.8l2.6-3.7h.8l-2.8 4 3 4.1h-.8l-2.7-3.8zM965.8 1040.9h-3l-.7 2.2h-.7l2.6-8.1h.6l2.5 8.1h-.7l-.6-2.2zm-2.7-.6h2.6l-1.3-4.2-1.3 4.2z"/></g></symbol><symbol viewBox="-133 -195.8 451.8 451.8" id="next" xmlns="http://www.w3.org/2000/svg"><path d="M212.4 52.4L18.2 246.7c-12.4 12.4-32.4 12.4-44.8 0-12.4-12.4-12.4-32.4 0-44.7L145.3 30.1-26.6-141.8c-12.4-12.4-12.4-32.4 0-44.7 12.4-12.4 32.4-12.4 44.8 0L212.4 7.7c6.2 6.2 9.3 14.3 9.3 22.4 0 8.1-3.1 16.2-9.3 22.3z"/></symbol><symbol viewBox="0 0 310.4 310.4" id="ok" xmlns="http://www.w3.org/2000/svg"><path d="M0 0v310.4h310.4V0H0zm291.2 291.2h-272v-272h272v272zm0 0"/><g fill-rule="evenodd" clip-rule="evenodd"><path d="M143.4 202.1c-18.2-1.9-34.5-6.4-48.6-17.3-1.7-1.4-3.5-2.7-5.1-4.2-6.1-5.9-6.8-12.6-1.9-19.6 4.2-6 11.1-7.6 18.4-4.1 1.4.7 2.7 1.5 4 2.4 26.1 18 62 18.5 88.3.8 2.6-2 5.4-3.6 8.6-4.4 6.3-1.6 12.1.7 15.5 6.2 3.8 6.3 3.8 12.4-.9 17.2-7.3 7.4-16 12.8-25.7 16.6-9.2 3.5-19.2 5.3-29.2 6.5 1.5 1.6 2.2 2.4 3.2 3.4 13.5 13.6 27.1 27.1 40.5 40.7 4.6 4.6 5.5 10.4 3 15.8-2.8 5.9-8.9 9.8-15 9.3-3.8-.3-6.8-2.2-9.5-4.9-10.2-10.2-20.6-20.3-30.5-30.7-2.9-3-4.3-2.5-6.9.2-10.2 10.5-20.7 20.9-31.1 31.3-4.7 4.6-10.3 5.5-15.8 2.8-5.8-2.8-9.5-8.7-9.2-14.7.2-4 2.2-7.1 4.9-9.9 13.4-13.3 26.7-26.7 40-40.1.9-1 1.7-1.9 3-3.3zm0 0"/><path d="M154.5 155.6c-32.4-.1-59-27-58.8-59.5.2-32.8 26.8-59.3 59.5-59.2 32.8.1 59.1 26.9 59 60.1-.2 32.5-27 58.7-59.7 58.6zm29.4-59.3c-.1-16.1-12.9-29-29-29-16.2 0-29.2 13-29.1 29.3.1 16.1 13.1 28.8 29.2 28.7 16.2 0 29-12.9 28.9-29zm0 0"/></g></symbol><symbol viewBox="-133 -195.8 451.8 451.8" id="prev" xmlns="http://www.w3.org/2000/svg"><path d="M-26.6 7.7l194.3-194.3c12.4-12.4 32.4-12.4 44.7 0 12.4 12.4 12.4 32.4 0 44.7L40.5 30.1 212.4 202c12.4 12.4 12.4 32.4 0 44.7-12.4 12.4-32.4 12.4-44.7 0L-26.6 52.4c-6.2-6.2-9.3-14.3-9.3-22.4 0-8 3.1-16.1 9.3-22.3z"/></symbol><symbol viewBox="312 -18 96 96" id="salecard" xmlns="http://www.w3.org/2000/svg"><path fill="#010101" d="M390.5 18.1h-7.3V7.8c0-3.3-2.7-6-6-6h-46.4c-3.3 0-6 2.7-6 6v26.8c0 3.3 2.7 6 6 6h7.3v10.3c0 3.3 2.7 6 6 6h46.4c3.3 0 6-2.7 6-6V24.1c-.1-3.3-2.7-6-6-6zm-46.4 0h-15.8v-4.5h51.6V18h-35.7v.1zM330.7 5.3h46.4c1.4 0 2.5 1.1 2.5 2.5v2.4h-51.5V7.8c.1-1.4 1.2-2.5 2.6-2.5zm0 32c-1.4 0-2.5-1.1-2.5-2.5V21.6h10.4c-.4.8-.6 1.6-.6 2.5v13.1h-7.3v.1zM393 51c0 1.4-1.1 2.5-2.5 2.5h-46.4c-1.4 0-2.5-1.1-2.5-2.5V24.1c0-1.3 1-2.4 2.3-2.5H390.5c1.4 0 2.5 1.1 2.5 2.5V51z"/><path d="M351.8 31.4c0-1.1.2-2.1.7-3.1.5-1 1.2-1.7 2.1-2.2s2.1-.8 3.4-.8c1.9 0 3.5.6 4.6 1.7 1.1 1.1 1.7 2.6 1.7 4.4 0 1.9-.6 3.3-1.7 4.4s-2.6 1.7-4.6 1.7c-1.3 0-2.5-.3-3.4-.8-1-.5-1.7-1.3-2.1-2.2-.4-1-.7-2-.7-3.1zm4.5 0c0 1.3.2 2.3.6 2.8.3.4.7.6 1.2.6s.9-.2 1.2-.6c.4-.6.6-1.5.6-2.8 0-1.3-.2-2.2-.6-2.8-.3-.4-.7-.6-1.2-.6s-.9.2-1.2.6c-.4.6-.6 1.5-.6 2.8zm15.2-6.1h3.3L361.4 50h-3.3l13.4-24.7zm-3 18.6c0-1.1.2-2.1.7-3.1s1.2-1.7 2.1-2.2c1-.5 2.1-.8 3.4-.8 1.9 0 3.5.6 4.6 1.7 1.1 1.1 1.7 2.6 1.7 4.4 0 1.8-.6 3.3-1.7 4.4-1.1 1.1-2.6 1.7-4.6 1.7-1.3 0-2.4-.3-3.4-.8s-1.7-1.3-2.1-2.2c-.5-1-.7-2-.7-3.1zm4.5 0c0 1.3.2 2.3.6 2.8.3.4.7.6 1.2.6s.9-.2 1.2-.6c.4-.6.6-1.5.6-2.8 0-1.3-.2-2.3-.6-2.9-.3-.4-.7-.6-1.2-.6s-.9.2-1.2.6c-.4.7-.6 1.6-.6 2.9z"/></symbol><symbol viewBox="0 0 22 22" id="search" xmlns="http://www.w3.org/2000/svg"><path d="M21.8 20.9l-5.3-5.3c1.4-1.6 2.3-3.8 2.3-6.2 0-5.2-4.2-9.4-9.4-9.4S0 4.2 0 9.4s4.2 9.4 9.4 9.4c2.4 0 4.5-.9 6.2-2.3l5.3 5.3c.1.1.3.2.5.2s.3-.1.5-.2c.2-.2.2-.7-.1-.9zM1.3 9.4c0-4.4 3.6-8.1 8.1-8.1 4.4 0 8.1 3.6 8.1 8.1s-3.6 8.1-8.1 8.1-8.1-3.7-8.1-8.1zm0 0"/></symbol><symbol viewBox="0 0 19.9 26.5" id="sign-in" xmlns="http://www.w3.org/2000/svg"><path d="M18.2 13.3c.5 0 .9.2 1.2.5.3.3.5.7.5 1.2v9.9c0 .5-.2.9-.5 1.2-.3.3-.7.5-1.2.5H1.7c-.5 0-.9-.2-1.2-.5-.3-.4-.5-.8-.5-1.2V15c0-.5.2-.9.5-1.2.3-.3.7-.5 1.2-.5h.6V7.7c0-2.1.8-4 2.3-5.5C6 .8 7.8 0 9.9 0c2.1 0 4 .8 5.5 2.3 1.5 1.5 2.3 3.3 2.3 5.5 0 .3-.1.6-.3.8-.2.2-.5.3-.8.3h-1.1c-.3 0-.6-.1-.8-.3-.2-.2-.3-.5-.3-.8 0-1.2-.4-2.3-1.3-3.1-.9-.9-1.9-1.3-3.1-1.3s-2.3.3-3.2 1.2c-.8.9-1.3 1.9-1.3 3.1v5.5h12.7z"/></symbol><symbol viewBox="0 0 96 96" id="time-prod" xmlns="http://www.w3.org/2000/svg"><path d="M81.8 57c.8-2.9 1.2-5.9 1.2-9 0-3.1-.4-6.2-1.2-9-.8-2.9-2-5.7-3.5-8.3v-.1l-.1-.1c-1.5-2.6-3.3-5-5.5-7.1 0 0 0-.1-.1-.1h-.1c-2.1-2.1-4.5-3.9-7.1-5.5l-.1-.1h-.1c-2.6-1.5-5.4-2.7-8.3-3.5-2.9-.8-5.9-1.2-9-1.2-3.1 0-6.2.4-9 1.2-3 .8-5.7 2-8.3 3.5h-.1l-.1.1c-2.6 1.5-5 3.3-7.1 5.5 0 0-.1 0-.1.1 0 0 0 .1-.1.1-2.1 2.1-3.9 4.5-5.5 7.1l-.1.1v.1c-1.5 2.6-2.7 5.4-3.5 8.3-.8 2.9-1.2 5.9-1.2 9 0 3.1.4 6.2 1.2 9 .8 2.9 2 5.7 3.5 8.3v.1l.1.1c1.5 2.6 3.3 5 5.4 7.1 0 0 0 .1.1.1 0 0 .1 0 .1.1 2.1 2.1 4.5 3.9 7.1 5.4l.1.1s.1 0 .1.1c2.6 1.5 5.4 2.6 8.3 3.4 2.9.8 5.9 1.2 9 1.2 3.1 0 6.2-.4 9-1.2 2.9-.8 5.7-2 8.3-3.4 0 0 .1 0 .1-.1l.1-.1c2.6-1.5 5-3.3 7.1-5.5 0 0 .1 0 .1-.1 0 0 0-.1.1-.1 2.1-2.1 3.9-4.5 5.4-7.1l.1-.1v-.1c1.7-2.5 2.9-5.3 3.7-8.3 0 .1 0 .1 0 0zM77 57l2.2.6c-.6 2-1.4 3.9-2.4 5.7l-2-1.1c-.6-.3-1.3-.1-1.6.4-.3.6-.1 1.3.4 1.6l2 1.1c-1.1 1.8-2.4 3.4-3.8 4.9l-1.6-1.6c-.5-.5-1.2-.5-1.6 0-.5.5-.5 1.2 0 1.6l1.6 1.6c-1.5 1.4-3.2 2.7-4.9 3.8l-1.1-2c-.3-.6-1-.8-1.6-.4-.6.3-.8 1-.4 1.6l1.1 2c-1.8 1-3.7 1.8-5.7 2.4L57 77c-.2-.6-.8-1-1.4-.8-.6.2-1 .8-.8 1.4l.6 2.2c-2 .5-4 .7-6.1.8V76c0-.6-.5-1.2-1.2-1.2s-1.2.5-1.2 1.2v4.6c-2.1-.1-4.2-.3-6.1-.8l.6-2.2c.2-.6-.2-1.3-.8-1.4-.8-.2-1.4.1-1.6.8l-.6 2.2c-2-.6-3.9-1.4-5.7-2.4l1.1-2c.3-.6.1-1.3-.4-1.6-.6-.3-1.3-.1-1.6.4l-1.1 2c-1.8-1.1-3.4-2.4-4.9-3.8l1.6-1.6c.5-.5.5-1.2 0-1.6-.5-.5-1.2-.5-1.6 0l-1.6 1.6c-1.4-1.5-2.7-3.2-3.8-4.9l2-1.1c.6-.3.8-1 .4-1.6-.3-.6-1-.8-1.6-.4l-2 1.1c-1-1.8-1.8-3.7-2.4-5.7L19 57c.6-.2 1-.8.8-1.4-.2-.6-.8-1-1.4-.8l-2.2.6c-.5-2-.7-4-.8-6.1H20c.6 0 1.2-.5 1.2-1.2 0-.6-.5-1.2-1.2-1.2h-4.6c.1-2.1.3-4.2.8-6.1l2.2.6h.3c.5 0 1-.3 1.1-.9.2-.6-.2-1.3-.8-1.4l-2.2-.6c.6-2 1.4-3.9 2.4-5.7l2 1.1c.2.1.4.2.6.2.4 0 .8-.2 1-.6.3-.6.1-1.3-.4-1.6l-2-1.1c1.1-1.8 2.4-3.4 3.8-4.9l1.6 1.6c.2.2.5.3.8.3.3 0 .6-.1.8-.3.5-.5.5-1.2 0-1.6l-1.6-1.6c1.5-1.4 3.2-2.7 4.9-3.8l1.1 2c.2.4.6.6 1 .6.2 0 .4 0 .6-.2.6-.3.8-1 .4-1.6l-1.1-2c1.8-1 3.7-1.8 5.7-2.4L39 19c.1.5.6.9 1.1.9h.3c.6-.2 1-.8.8-1.4l-.6-2.2c2-.5 4-.7 6.1-.8V20c0 .6.5 1.2 1.2 1.2s1.2-.5 1.2-1.2v-4.6c2.1.1 4.2.3 6.1.8l-.6 2.2c-.2.6.2 1.3.8 1.4h.3c.5 0 1-.3 1.1-.9l.6-2.2c2 .6 3.9 1.4 5.7 2.4l-1.1 2c-.3.6-.1 1.3.4 1.6.2.1.4.2.6.2.4 0 .8-.2 1-.6l1.1-2c1.8 1.1 3.4 2.4 4.9 3.8l-1.6 1.6c-.5.5-.5 1.2 0 1.6.2.2.5.3.8.3.3 0 .6-.1.8-.3l1.6-1.6c1.4 1.5 2.7 3.2 3.8 4.9l-2 1.1c-.6.3-.8 1-.4 1.6.2.4.6.6 1 .6.2 0 .4-.1.6-.2l2-1.1c1 1.8 1.8 3.7 2.4 5.7l-2 .7c-.6.2-1 .8-.8 1.4.1.5.6.9 1.1.9h.3l2.2-.6c.5 2 .7 4 .8 6.1H76c-.6 0-1.2.5-1.2 1.2 0 .6.5 1.2 1.2 1.2h4.6c-.1 2.1-.3 4.2-.8 6.1l-2.2-.6c-.6-.2-1.3.2-1.4.8-.2.7.1 1.3.8 1.5zm0 0"/><path d="M60.8 46.8h-8.3c-.4-1.6-1.7-2.9-3.3-3.3V28.2c0-.6-.5-1.2-1.2-1.2s-1.2.5-1.2 1.2v15.3c-2 .5-3.5 2.3-3.5 4.5 0 2.6 2.1 4.7 4.7 4.7 2.2 0 4-1.5 4.5-3.5h8.3c.6 0 1.2-.5 1.2-1.2 0-.6-.5-1.2-1.2-1.2zM48 50.3c-1.3 0-2.3-1-2.3-2.3 0-1.3 1-2.3 2.3-2.3 1.3 0 2.3 1 2.3 2.3 0 1.3-1 2.3-2.3 2.3zm0 0M48 53.8c-5.1 0-9.3 4.2-9.3 9.3 0 5.1 4.2 9.3 9.3 9.3 5.1 0 9.3-4.2 9.3-9.3 0-5.1-4.2-9.3-9.3-9.3zm0 16.3c-3.9 0-7-3.1-7-7s3.1-7 7-7 7 3.1 7 7-3.1 7-7 7zm0 0"/><path d="M45.3 58.8c-.5-.5-1.2-.5-1.6 0-.5.5-.5 1.2 0 1.6l3.5 3.5c.2.2.5.3.8.3.3 0 .6-.1.8-.3.5-.5.5-1.2 0-1.6l-3.5-3.5zm0 0"/></symbol><symbol viewBox="0 0 388 388" id="vk" xmlns="http://www.w3.org/2000/svg"><path d="M115.8 220.8c9.7 13.2 20.9 24.8 35.3 33.1 16.4 9.3 34 12.2 52.5 11.3 8.7-.4 11.3-2.7 11.7-11.3.3-5.9 1-11.8 3.9-17.1 2.9-5.2 7.2-6.2 12.2-3 2.5 1.6 4.6 3.7 6.6 5.9 4.9 5.3 9.6 10.9 14.7 16 6.4 6.5 13.9 10.3 23.4 9.5h36.7c5.9-.4 9-7.6 5.6-14.3-2.4-4.6-5.5-8.7-8.8-12.7-7.5-9-16.3-16.7-24.7-24.8-7.5-7.4-8-11.6-2-20.1 6.6-9.3 13.7-18.2 20.4-27.4 6.2-8.6 12.6-17.2 15.9-27.5 2.1-6.6.2-9.5-6.5-10.6-1.2-.2-2.4-.2-3.5-.2h-39.9c-4.9-.1-7.6 2.1-9.4 6.4-2.4 5.9-4.8 11.8-7.6 17.5-6.3 12.9-13.4 25.4-23.4 35.9-2.2 2.3-4.6 5.3-8.3 4.1-4.6-1.7-5.9-9.2-5.8-11.8v-46.1c-.9-6.6-2.4-9.5-8.9-10.8h-41.5c-5.5 0-8.3 2.2-11.3 5.6-1.7 2-2.2 3.3 1.3 4 6.9 1.3 10.8 5.8 11.8 12.7 1.6 11 1.5 22.1.6 33.2-.3 3.2-.8 6.4-2.1 9.5-2 4.8-5.3 5.7-9.5 2.8-3.8-2.6-6.5-6.4-9.2-10.1-9.9-14.1-17.9-29.2-24.4-45.1-1.9-4.6-5.1-7.4-10-7.5-12-.2-24-.2-36 0-7.2.1-9.3 3.6-6.4 10.2 13.1 28.8 27.6 57 46.6 82.7zm0 0"/><path d="M0 0v388h388V0H0zm364 364H24V24h340v340zm0 0"/></symbol><symbol viewBox="0 0 40 37.2" id="wishlist" xmlns="http://www.w3.org/2000/svg"><path d="M39.9 11.1C39.4 4.7 34.8 0 29.1 0c-3.8 0-7.3 2-9.2 5.3C18 2 14.6 0 10.9 0 5.2 0 .7 4.7.1 11.1c0 .3-.2 1.8.3 4.2.8 3.5 2.7 6.7 5.5 9.2l13.9 12.6L34 24.5c2.8-2.5 4.7-5.7 5.5-9.2.7-2.4.5-3.9.4-4.2zm-1.8 3.8c-.8 3.2-2.5 6.1-5.1 8.5L19.9 35.1 7 23.4c-2.6-2.3-4.3-5.2-5.1-8.5-.5-2.3-.3-3.6-.3-3.6v-.1c.5-5.6 4.4-9.7 9.3-9.7 3.6 0 6.8 2.2 8.3 5.8l.7 1.7.7-1.7c1.5-3.5 4.8-5.8 8.5-5.8 4.9 0 8.8 4.1 9.3 9.8 0 0 .2 1.3-.3 3.6zm0 0"/></symbol></svg>